<?xml version="1.0" encoding="UTF-8"?>
<svg version="1.1" xmlns="http://www.w3.org/2000/svg" width="481" height="447">
<path d="M0 0 C158.73 0 317.46 0 481 0 C481 147.51 481 295.02 481 447 C322.27 447 163.54 447 0 447 C0 299.49 0 151.98 0 0 Z " fill="#568BB5" transform="translate(0,0)"/>
<path d="M0 0 C158.73 0 317.46 0 481 0 C481 95.04 481 190.08 481 288 C480.34 288 479.68 288 479 288 C478.86013672 287.41734375 478.72027344 286.8346875 478.57617188 286.234375 C475.40604468 273.26845283 471.66052596 261.58393613 465 250 C464.50862549 249.12093994 464.50862549 249.12093994 464.00732422 248.22412109 C460.04980229 241.18261098 455.64810852 235.06923629 450.078125 229.21875 C444 222.72932331 444 222.72932331 444 220 C443.443125 219.938125 442.88625 219.87625 442.3125 219.8125 C439.04943855 218.66601895 437.41272767 216.45851667 435 214 C428.16957255 207.88240532 421.20839008 203.06412619 413 199 C412.4220166 198.69860107 411.8440332 198.39720215 411.24853516 198.08666992 C378.07739213 180.97510243 340.73700944 179.83112856 305.3581543 190.44238281 C298.18771922 192.74064438 291.60646448 195.89089934 284.9921875 199.4609375 C282 201 282 201 280 201 C280 201.66 280 202.32 280 203 C278.31550252 204.17118301 276.57504001 205.26242662 274.8125 206.3125 C270.64826974 208.88858632 267.33705246 211.39237572 264 215 C262.61882972 216.28675434 261.22184759 217.55667063 259.8125 218.8125 C258.80123047 219.71935547 258.80123047 219.71935547 257.76953125 220.64453125 C256 222 256 222 254 222 C253.67 223.32 253.34 224.64 253 226 C252.34 226 251.68 226 251 226 C251 226.66 251 227.32 251 228 C249.3545622 229.68762851 247.68711423 231.3540349 246 233 C245.67 233.66 245.34 234.32 245 235 C244.34 235 243.68 235 243 235 C243 235.66 243 236.32 243 237 C240 237 240 237 238.39453125 235.57421875 C237.87246094 234.95160156 237.35039062 234.32898438 236.8125 233.6875 C236.28269531 233.07261719 235.75289062 232.45773438 235.20703125 231.82421875 C234 230 234 230 234 227 C233.38125 226.938125 232.7625 226.87625 232.125 226.8125 C231.42375 226.544375 230.7225 226.27625 230 226 C229.31867549 224.33927151 228.65257873 222.672233 228 221 C226.06616713 219.69934079 226.06616713 219.69934079 224 219 C223.34 218.67 222.68 218.34 222 218 C222 217.34 222 216.68 222 216 C220.68 215.34 219.36 214.68 218 214 C218 213.34 218 212.68 218 212 C217.278125 211.7525 216.55625 211.505 215.8125 211.25 C212.70651704 209.86956313 210.65678672 208.12542937 208 206 C199.5625546 200.29581156 190.25473209 196.17668196 181 192 C179.845 191.47019531 178.69 190.94039062 177.5 190.39453125 C173.60143845 188.84119813 169.77024764 187.80543474 165.6875 186.875 C164.99205078 186.70613281 164.29660156 186.53726563 163.58007812 186.36328125 C135.26500217 179.77113708 102.09109037 182.84699563 76 196 C74.91847656 196.51820313 73.83695312 197.03640625 72.72265625 197.5703125 C59.13445401 204.28161421 39.03304863 215.93390273 32 230 C31.34 230 30.68 230 30 230 C29.75378906 230.53367188 29.50757812 231.06734375 29.25390625 231.6171875 C27.68289471 234.60259883 25.81587174 237.3223501 23.9375 240.125 C11.58408622 259.18066378 4.2452754 279.31497615 2 302 C1.34 302 0.68 302 0 302 C0 202.34 0 102.68 0 0 Z " fill="#57C5F6" transform="translate(0,0)"/>
<path d="M0 0 C3 0.6875 3 0.6875 4.640625 2.7421875 C11 13.14563107 11 13.14563107 11 18.6875 C11.66 18.6875 12.32 18.6875 13 18.6875 C13 19.6775 13 20.6675 13 21.6875 C13.5775 21.914375 14.155 22.14125 14.75 22.375 C17.59739809 24.03598222 19.12067193 26.00274561 21 28.6875 C21 29.3475 21 30.0075 21 30.6875 C21.66 30.6875 22.32 30.6875 23 30.6875 C23.4021875 31.8940625 23.4021875 31.8940625 23.8125 33.125 C24.4003125 34.3934375 24.4003125 34.3934375 25 35.6875 C25.99 36.0175 26.98 36.3475 28 36.6875 C28.2165625 37.6465625 28.2165625 37.6465625 28.4375 38.625 C28.623125 39.305625 28.80875 39.98625 29 40.6875 C30.84971696 41.73771103 30.84971696 41.73771103 33 42.6875 C35.25 44.6875 35.25 44.6875 37 46.6875 C37 47.3475 37 48.0075 37 48.6875 C37.598125 48.955625 38.19625 49.22375 38.8125 49.5 C40.98726664 50.68058761 42.26816512 51.95566512 44 53.6875 C44.99 54.0175 45.98 54.3475 47 54.6875 C47 55.3475 47 56.0075 47 56.6875 C47.5775 56.77 48.155 56.8525 48.75 56.9375 C51 57.6875 51 57.6875 52.625 59.5 C55.64752976 62.28390899 58.74136551 63.34818667 62.5625 64.7578125 C64.79604557 65.60970969 66.88367359 66.58034776 69 67.6875 C69 68.3475 69 69.0075 69 69.6875 C69.70125 69.86925781 70.4025 70.05101562 71.125 70.23828125 C75.50313748 71.39824974 79.83664114 72.54748496 84.0625 74.1875 C91.60996737 77.10217236 98.63933761 78.99268775 106.75 79.4765625 C109 79.6875 109 79.6875 111 80.6875 C110.01332711 85.71533312 109.00888493 90.73946297 107.9375 95.75 C107.70353516 96.85021484 107.70353516 96.85021484 107.46484375 97.97265625 C107 99.6875 107 99.6875 106 100.6875 C103.68611957 112.68850679 102.29726741 124.45768601 103 136.6875 C103.06380859 137.8312207 103.06380859 137.8312207 103.12890625 138.99804688 C104.23198086 156.54824679 107.38021167 173.21220751 116 188.6875 C116.495 189.904375 116.99 191.12125 117.5 192.375 C119.2000405 196.1292561 121.36893 199.25369851 123.79296875 202.57421875 C125 204.6875 125 204.6875 125 208.6875 C125.88365234 209.04908203 125.88365234 209.04908203 126.78515625 209.41796875 C129.42535206 210.9313085 130.65236262 212.54698212 132.4375 215 C135.09114445 218.5288422 137.795569 221.63566095 141 224.6875 C141.91652344 225.66976562 141.91652344 225.66976562 142.8515625 226.671875 C149.21385253 233.38119903 156.67417164 239.52458582 165 243.6875 C165 244.3475 165 245.0075 165 245.6875 C165.87914062 245.95949219 166.75828125 246.23148438 167.6640625 246.51171875 C170.78511247 247.61176095 173.4729782 248.92426037 176.375 250.5 C187.894743 256.34541415 200.37603048 259.26133086 213 261.6875 C213 262.3475 213 263.0075 213 263.6875 C104.76 263.6875 -3.48 263.6875 -115 263.6875 C-115 215.8375 -115 167.9875 -115 118.6875 C-114.34 118.6875 -113.68 118.6875 -113 118.6875 C-113.02537842 118.08019043 -113.05075684 117.47288086 -113.0769043 116.84716797 C-113.2262511 110.49901442 -112.44415532 104.93375221 -110.8125 98.8125 C-110.58328857 97.93537354 -110.35407715 97.05824707 -110.11791992 96.15454102 C-108.29172787 89.37288442 -106.1092338 82.99878055 -103 76.6875 C-102.64776367 75.97207031 -102.29552734 75.25664062 -101.93261719 74.51953125 C-91.76333738 54.06417925 -91.76333738 54.06417925 -85 46.6875 C-84.34 46.6875 -83.68 46.6875 -83 46.6875 C-82.773125 46.13964844 -82.54625 45.59179688 -82.3125 45.02734375 C-73.08073 28.56951569 -51.59460365 17.08531557 -35 9.6875 C-34.1234375 9.28144531 -33.246875 8.87539062 -32.34375 8.45703125 C-21.99043046 3.95333725 -10.91092676 2.50042072 0 0 Z " fill="#55A0DD" transform="translate(115,183.3125)"/>
<path d="M0 0 C73.26 0 146.52 0 222 0 C222.33 0.66 222.66 1.32 223 2 C221.54207031 2.185625 221.54207031 2.185625 220.0546875 2.375 C203.5737661 4.73870041 187.76368333 10.27912982 173.36328125 18.65234375 C171 20 171 20 168 21 C168 21.66 168 22.32 168 23 C166.14698918 24.16671052 164.28967986 25.3270215 162.4140625 26.45703125 C151.92004005 33.1643757 143.13662619 41.84972078 136 52 C135.39929688 52.84175781 134.79859375 53.68351562 134.1796875 54.55078125 C130.21878405 60.14410725 126.54123839 65.52035567 123.94140625 71.890625 C123 74 123 74 121.65234375 76.484375 C118.41394495 82.48079631 116.07691276 88.39648747 114.25 94.9375 C114.05164551 95.63979736 113.85329102 96.34209473 113.64892578 97.06567383 C110.60756003 108.51697523 109.63497655 119.86667979 109.6875 131.6875 C109.69241455 133.00242432 109.6973291 134.31734863 109.70239258 135.67211914 C109.87778902 150.29298668 111.97756926 163.22851084 116.9140625 176.9609375 C117.7534805 179.31010011 118.46128365 181.56979067 119 184 C117.88625 184.15855469 116.7725 184.31710938 115.625 184.48046875 C101.84470725 186.54637254 88.51986275 189.68850412 76 196 C74.91847656 196.51820313 73.83695312 197.03640625 72.72265625 197.5703125 C59.13445401 204.28161421 39.03304863 215.93390273 32 230 C31.34 230 30.68 230 30 230 C29.75378906 230.53367188 29.50757812 231.06734375 29.25390625 231.6171875 C27.68289471 234.60259883 25.81587174 237.3223501 23.9375 240.125 C11.58408622 259.18066378 4.2452754 279.31497615 2 302 C1.34 302 0.68 302 0 302 C0 202.34 0 102.68 0 0 Z " fill="#FDFDFD" transform="translate(0,0)"/>
<path d="M0 0 C73.26 0 146.52 0 222 0 C222 95.04 222 190.08 222 288 C221.34 288 220.68 288 220 288 C219.79020508 287.12601562 219.79020508 287.12601562 219.57617188 286.234375 C216.40604468 273.26845283 212.66052596 261.58393613 206 250 C205.50862549 249.12093994 205.50862549 249.12093994 205.00732422 248.22412109 C201.04980229 241.18261098 196.64810852 235.06923629 191.078125 229.21875 C185 222.72932331 185 222.72932331 185 220 C184.443125 219.938125 183.88625 219.87625 183.3125 219.8125 C180.04943855 218.66601895 178.41272767 216.45851667 176 214 C169.16957255 207.88240532 162.20839008 203.06412619 154 199 C153.4227417 198.69860107 152.8454834 198.39720215 152.25073242 198.08666992 C137.30160904 190.36825995 121.67392236 185.84837938 105 184 C106.00802977 178.40486848 107.59245539 172.95427236 109.09570312 167.4765625 C112.06264025 156.42850834 113.32218807 146.14735646 113.25 134.6875 C113.25773437 133.47126953 113.26546875 132.25503906 113.2734375 131.00195312 C113.23339561 112.15223306 109.26431317 94.33157676 102 77 C101.67128906 76.16726562 101.34257812 75.33453125 101.00390625 74.4765625 C99.06225017 69.75535726 96.65639986 65.95168191 93.4921875 61.953125 C92.06846737 60.08961698 90.87723234 58.20594245 89.6875 56.1875 C83.2786582 45.79093442 74.63393146 36.43997805 64.67578125 29.34375 C64.12277344 28.9003125 63.56976563 28.456875 63 28 C63 27.34 63 26.68 63 26 C62.21625 25.814375 61.4325 25.62875 60.625 25.4375 C57.28139735 24.1115886 55.01642987 22.70879283 52.125 20.625 C37.22579621 9.93548249 18.04623718 4.34577858 0 2 C0 1.34 0 0.68 0 0 Z " fill="#FCFDFD" transform="translate(259,0)"/>
<path d="M0 0 C4.39577504 -0.05901588 8.79144562 -0.09393248 13.1875 -0.125 C14.41404297 -0.14175781 15.64058594 -0.15851563 16.90429688 -0.17578125 C25.133359 -0.21920638 32.91690343 0.4629906 41 2 C41.74483643 2.14083008 42.48967285 2.28166016 43.25708008 2.42675781 C60.57906624 5.95751948 78.49407752 13.71588509 92.359375 24.7265625 C94.12255034 26.15033665 94.12255034 26.15033665 96.75 27.625 C99.24643782 29.15060089 101.08074085 30.79640616 103 33 C103 33.66 103 34.32 103 35 C103.5775 35.2475 104.155 35.495 104.75 35.75 C107.32939979 37.18299988 109.06121592 38.78424676 111 41 C111 41.66 111 42.32 111 43 C111.598125 43.061875 112.19625 43.12375 112.8125 43.1875 C115.88791343 44.32979642 116.45477272 46.17828061 118 49 C118.556875 49.556875 119.11375 50.11375 119.6875 50.6875 C120.120625 51.120625 120.55375 51.55375 121 52 C121 52.66 121 53.32 121 54 C121.99 54 122.98 54 124 54 C124 53.34 124 52.68 124 52 C124.66 52 125.32 52 126 52 C126.2475 51.21625 126.495 50.4325 126.75 49.625 C128.15389099 46.67682892 129.00675737 46.0975223 132 45 C132 44.34 132 43.68 132 43 C132.66 43 133.32 43 134 43 C134.07734375 42.41089844 134.1546875 41.82179687 134.234375 41.21484375 C135.25524576 38.26161047 136.7294054 37.36948256 139.25 35.5625 C141.86866004 33.62625373 144.15778605 31.83816815 146.4375 29.5 C156.175 20 156.175 20 161 20 C161 19.34 161 18.68 161 18 C181.89779004 5.6924824 205.1498439 -0.21266643 229.375 -0.125 C230.46683594 -0.12886719 231.55867187 -0.13273438 232.68359375 -0.13671875 C234.24400391 -0.13478516 234.24400391 -0.13478516 235.8359375 -0.1328125 C237.25205322 -0.13112061 237.25205322 -0.13112061 238.69677734 -0.12939453 C241 0 241 0 243 1 C242.49287967 4.71888239 241.88391785 7.73454239 240 11 C239.34 11 238.68 11 238 11 C237.9175 11.515625 237.835 12.03125 237.75 12.5625 C236.67859775 16.04455732 234.86476395 18.87200885 233 22 C232.34 22 231.68 22 231 22 C230.89558594 22.56203125 230.79117188 23.1240625 230.68359375 23.703125 C229.87386765 26.42380471 228.63796662 28.39257807 227.0625 30.75 C226.53785156 31.54921875 226.01320313 32.3484375 225.47265625 33.171875 C224.98667969 33.77515625 224.50070312 34.3784375 224 35 C223.34 35 222.68 35 222 35 C221.690625 35.61875 221.38125 36.2375 221.0625 36.875 C220.375 38.25 219.6875 39.625 219 41 C218.34 41 217.68 41 217 41 C216.79375 41.556875 216.5875 42.11375 216.375 42.6875 C214.42316968 45.97012371 212.05769006 47.70673246 209 50 C208.34 50 207.68 50 207 50 C207 50.99 207 51.98 207 53 C206.01 53 205.02 53 204 53 C203.67 53.99 203.34 54.98 203 56 C200.9375 56.6875 200.9375 56.6875 199 57 C199 57.66 199 58.32 199 59 C196.03 59.495 196.03 59.495 193 60 C193 60.99 193 61.98 193 63 C191.70990357 63.50403768 190.41786211 64.00309926 189.125 64.5 C188.40570313 64.7784375 187.68640625 65.056875 186.9453125 65.34375 C185 66 185 66 183 66 C183 66.66 183 67.32 183 68 C181.56445975 68.50559908 180.1264798 69.0042749 178.6875 69.5 C177.88699219 69.7784375 177.08648437 70.056875 176.26171875 70.34375 C174 71 174 71 171 71 C171 71.66 171 72.32 171 73 C170.34 73 169.68 73 169 73 C169 73.66 169 74.32 169 75 C163.72 75.66 158.44 76.32 153 77 C153 77.66 153 78.32 153 79 C145.08 79.495 145.08 79.495 137 80 C137.33 82.97 137.66 85.94 138 89 C138.66 89 139.32 89 140 89 C140.6398903 90.86997069 141.26077052 92.74644413 141.875 94.625 C142.39707031 96.19121094 142.39707031 96.19121094 142.9296875 97.7890625 C145.91283395 108.4192636 146.33597095 119.40378441 146.25 130.375 C146.24250732 131.64432373 146.23501465 132.91364746 146.22729492 134.22143555 C146.07026241 147.92537303 144.62395574 160.28052085 140.21875 173.28125 C138.9459581 177.16489708 137.94933215 181.02686916 137 185 C136.34 185 135.68 185 135 185 C134.67 186.98 134.34 188.96 134 191 C133.34 191 132.68 191 132 191 C131.79503906 191.62648438 131.59007812 192.25296875 131.37890625 192.8984375 C130.97478516 194.12433594 130.97478516 194.12433594 130.5625 195.375 C130.29566406 196.18710937 130.02882812 196.99921875 129.75390625 197.8359375 C129 200 129 200 128 202 C127.34 202 126.68 202 126 202 C125.01 204.97 125.01 204.97 124 208 C123.01 208 122.02 208 121 208 C120.68546875 207.41992188 120.3709375 206.83984375 120.046875 206.2421875 C118.1265752 202.73706196 116.23660102 199.33697721 113.9375 196.0625 C111.8009056 192.68530239 110.41497402 189.34254878 109 185.6171875 C108.36792461 183.96292769 107.70489656 182.3198788 107 180.6953125 C96.63199373 156.63829795 94.74150058 126.36243207 101 101 C101.65420136 99.66050651 102.32079969 98.32699252 103 97 C103.3971433 95.71491347 103.75402129 94.41671201 104.0703125 93.109375 C104.24433594 92.40039062 104.41835937 91.69140625 104.59765625 90.9609375 C104.85869141 89.86652344 104.85869141 89.86652344 105.125 88.75 C105.30675781 88.00492187 105.48851562 87.25984375 105.67578125 86.4921875 C106.12147499 84.6624974 106.56131959 82.83138425 107 81 C106.21238281 80.97421875 105.42476563 80.9484375 104.61328125 80.921875 C90.5182235 80.18793116 78.02581581 75.01636039 65 70 C65 69.34 65 68.68 65 68 C64.44570312 67.87238281 63.89140625 67.74476563 63.3203125 67.61328125 C60.77210812 66.93976595 58.34335681 66.11221278 55.875 65.1875 C55.00617188 64.87167969 54.13734375 64.55585938 53.2421875 64.23046875 C50.59993347 62.7804513 50.22415629 61.66844595 49 59 C45.95800528 57.70768358 45.95800528 57.70768358 43 57 C43 56.34 43 55.68 43 55 C42.46375 54.938125 41.9275 54.87625 41.375 54.8125 C35.8109006 52.90899231 32.02307251 48.06666129 28.39453125 43.6484375 C27.00473156 42.00559305 25.5268768 40.51488562 24 39 C19 33.46478873 19 33.46478873 19 31 C18.34 31 17.68 31 17 31 C15.5625 29.28515625 15.5625 29.28515625 14 27.0625 C11.95183196 24.01367363 11.95183196 24.01367363 9 22 C9 21.01 9 20.02 9 19 C8.34 19 7.68 19 7 19 C6.67386719 18.18015625 6.34773438 17.3603125 6.01171875 16.515625 C5.35623047 14.89914063 5.35623047 14.89914063 4.6875 13.25 C4.25824219 12.18265625 3.82898438 11.1153125 3.38671875 10.015625 C2.14663794 7.01083164 2.14663794 7.01083164 0.26953125 4.796875 C-0.14941406 4.20390625 -0.56835938 3.6109375 -1 3 C-0.67 2.01 -0.34 1.02 0 0 Z " fill="#1D71AF" transform="translate(119,183)"/>
<path d="M0 0 C4.39577504 -0.05901588 8.79144562 -0.09393248 13.1875 -0.125 C14.41404297 -0.14175781 15.64058594 -0.15851563 16.90429688 -0.17578125 C25.133359 -0.21920638 32.91690343 0.4629906 41 2 C41.74483643 2.14083008 42.48967285 2.28166016 43.25708008 2.42675781 C60.57906624 5.95751948 78.49407752 13.71588509 92.359375 24.7265625 C94.12255034 26.15033665 94.12255034 26.15033665 96.75 27.625 C99.24643782 29.15060089 101.08074085 30.79640616 103 33 C103 33.66 103 34.32 103 35 C103.5775 35.2475 104.155 35.495 104.75 35.75 C107.32939979 37.18299988 109.06121592 38.78424676 111 41 C111 41.66 111 42.32 111 43 C111.598125 43.061875 112.19625 43.12375 112.8125 43.1875 C115.88791343 44.32979642 116.45477272 46.17828061 118 49 C118.556875 49.556875 119.11375 50.11375 119.6875 50.6875 C120.120625 51.120625 120.55375 51.55375 121 52 C121 52.66 121 53.32 121 54 C122.485 54.495 122.485 54.495 124 55 C123.01 55.495 123.01 55.495 122 56 C120.97862543 57.65365406 119.98387706 59.32376502 119 61 C118.15239911 62.15069868 117.29783505 63.29629085 116.4375 64.4375 C114.21406109 67.49721742 113.10529534 70.3683153 112 74 C111.2265625 75.2684375 111.2265625 75.2684375 110.4375 76.5625 C108.94564512 79.09216697 108.4124301 81.11298928 108 84 C107.67 83.01 107.34 82.02 107 81 C106.21238281 80.97421875 105.42476563 80.9484375 104.61328125 80.921875 C90.5182235 80.18793116 78.02581581 75.01636039 65 70 C65 69.34 65 68.68 65 68 C64.44570312 67.87238281 63.89140625 67.74476563 63.3203125 67.61328125 C60.77210812 66.93976595 58.34335681 66.11221278 55.875 65.1875 C55.00617188 64.87167969 54.13734375 64.55585938 53.2421875 64.23046875 C50.59993347 62.7804513 50.22415629 61.66844595 49 59 C45.95800528 57.70768358 45.95800528 57.70768358 43 57 C43 56.34 43 55.68 43 55 C42.46375 54.938125 41.9275 54.87625 41.375 54.8125 C35.8109006 52.90899231 32.02307251 48.06666129 28.39453125 43.6484375 C27.00473156 42.00559305 25.5268768 40.51488562 24 39 C19 33.46478873 19 33.46478873 19 31 C18.34 31 17.68 31 17 31 C15.5625 29.28515625 15.5625 29.28515625 14 27.0625 C11.95183196 24.01367363 11.95183196 24.01367363 9 22 C9 21.01 9 20.02 9 19 C8.34 19 7.68 19 7 19 C6.67386719 18.18015625 6.34773438 17.3603125 6.01171875 16.515625 C5.35623047 14.89914063 5.35623047 14.89914063 4.6875 13.25 C4.25824219 12.18265625 3.82898438 11.1153125 3.38671875 10.015625 C2.14663794 7.01083164 2.14663794 7.01083164 0.26953125 4.796875 C-0.14941406 4.20390625 -0.56835938 3.6109375 -1 3 C-0.67 2.01 -0.34 1.02 0 0 Z " fill="#1E8DDB" transform="translate(119,183)"/>
<path d="M0 0 C0.33 0 0.66 0 1 0 C1.09498779 0.65895264 1.18997559 1.31790527 1.2878418 1.99682617 C3.90280536 19.98256679 3.90280536 19.98256679 10 37 C10.5566818 38.26344609 11.11125258 39.52782376 11.6640625 40.79296875 C14.85177214 47.97173692 18.41920914 54.60077397 23 61 C26 65.7 26 65.7 26 68 C26.66 68 27.32 68 28 68 C29.375 69.6171875 29.375 69.6171875 31 71.875 C41.13407947 85.19943782 54.06228843 95.5524838 69 103 C69.94359375 103.50144531 70.8871875 104.00289063 71.859375 104.51953125 C83.75619817 110.73546399 95.8505475 114.54197164 109 117 C109 117.66 109 118.32 109 119 C72.7 119 36.4 119 -1 119 C-1.04016367 89.84117674 -1.04016367 89.84117674 -1.05025387 75.47834778 C-1.0558036 67.69844963 -1.06285846 59.91856217 -1.07543945 52.13867188 C-1.08645413 45.32412994 -1.09227766 38.50959956 -1.09487724 31.69504929 C-1.09673079 29.08982537 -1.10035007 26.48460211 -1.10573006 23.87938309 C-1.11294557 20.24200299 -1.11399072 16.60467121 -1.11352539 12.96728516 C-1.11712067 11.8804393 -1.12071594 10.79359344 -1.12442017 9.67381287 C-1.1230455 8.68660751 -1.12167084 7.69940216 -1.12025452 6.68228149 C-1.12117631 5.82132685 -1.1220981 4.9603722 -1.12304783 4.07332802 C-1 2 -1 2 0 0 Z " fill="#FCFDFC" transform="translate(1,328)"/>
<path d="M0 0 C0.66 0 1.32 0 2 0 C2 35.31 2 70.62 2 107 C-34.3 107 -70.6 107 -108 107 C-108 106.34 -108 105.68 -108 105 C-107.13761719 104.86464844 -106.27523438 104.72929687 -105.38671875 104.58984375 C-73.711509 99.00403591 -42.74376685 81.36269274 -23.8359375 54.98046875 C-21.84369794 52.01449412 -19.91134123 49.01857194 -18 46 C-17.30777344 44.96939453 -17.30777344 44.96939453 -16.6015625 43.91796875 C-8.20547772 31.21688509 -2.06276652 15.11886521 0 0 Z " fill="#FCFDFC" transform="translate(479,340)"/>
<path d="M0 0 C3.54348386 1.44995948 5.20126334 3.23961128 7.4375 6.3125 C10.09114445 9.8413422 12.795569 12.94816095 16 16 C16.61101562 16.65484375 17.22203125 17.3096875 17.8515625 17.984375 C24.21385253 24.69369903 31.67417164 30.83708582 40 35 C40 35.66 40 36.32 40 37 C40.87914062 37.27199219 41.75828125 37.54398437 42.6640625 37.82421875 C45.78511247 38.92426095 48.4729782 40.23676037 51.375 41.8125 C62.894743 47.65791415 75.37603048 50.57383086 88 53 C88 53.66 88 54.32 88 55 C30.58 55 -26.84 55 -86 55 C-86 54.34 -86 53.68 -86 53 C-84.29457031 52.65388672 -84.29457031 52.65388672 -82.5546875 52.30078125 C-61.42328553 47.89639234 -42.05443176 40.31902042 -25.15234375 26.6171875 C-23 25 -23 25 -21 25 C-21 24.34 -21 23.68 -21 23 C-19.63671875 21.6953125 -19.63671875 21.6953125 -17.6875 20.125 C-13.89873603 16.90556729 -10.48727586 13.4645601 -7.125 9.8125 C-6.64893311 9.30154785 -6.17286621 8.7905957 -5.68237305 8.26416016 C-3.31484951 5.66620728 -1.35396243 3.26040379 0 0 Z " fill="#FBFCFC" transform="translate(240,392)"/>
<path d="M0 0 C0.99 0.33 1.98 0.66 3 1 C3.76254647 4.92166757 4.12373652 8.77080688 4.375 12.75 C5.14463869 22.68477347 5.14463869 22.68477347 10 31 C10.8515625 33.05859375 10.8515625 33.05859375 11.625 35.4375 C11.88539062 36.21996094 12.14578125 37.00242187 12.4140625 37.80859375 C13 40 13 40 13 43 C13.66 43 14.32 43 15 43 C15 44.65 15 46.3 15 48 C15.61875 48.04125 16.2375 48.0825 16.875 48.125 C19 49 19 49 20.1875 51.8125 C21 55 21 55 21.375 57.25 C21.58125 57.8275 21.7875 58.405 22 59 C22.61875 59.28875 23.2375 59.5775 23.875 59.875 C26.94585561 61.50074709 27.56095778 63.92568254 29 67 C29.66 67.33 30.32 67.66 31 68 C31 68.66 31 69.32 31 70 C31.8353125 70.37125 31.8353125 70.37125 32.6875 70.75 C36.94019691 73.04875509 40.19845585 75.41425125 42 80 C42.66 80 43.32 80 44 80 C44.391875 80.928125 44.78375 81.85625 45.1875 82.8125 C47.17479892 86.30740499 48.3891326 87.36651237 52 89 C54.69254991 89.70670728 54.69254991 89.70670728 57 90 C57 90.66 57 91.32 57 92 C57.66 92 58.32 92 59 92 C59.33 92.99 59.66 93.98 60 95 C63.50294871 96.71567661 63.50294871 96.71567661 67 98 C67 98.66 67 99.32 67 100 C67.66 100 68.32 100 69 100 C68.505 101.485 68.505 101.485 68 103 C53.3170377 95.63060447 35.93497204 83.19083795 27 69 C27 68.34 27 67.68 27 67 C26.34 67 25.68 67 25 67 C23.29808348 64.57213325 21.7255596 62.15430356 20.1875 59.625 C19.73536133 58.88765625 19.28322266 58.1503125 18.81738281 57.390625 C8.06358468 39.68762158 0.97378091 20.81876436 0 0 Z " fill="#699ECA" transform="translate(2,329)"/>
<path d="M0 0 C24.50636059 3.16619646 47.76556048 13.17908293 66 30 C66.76828125 30.65484375 67.5365625 31.3096875 68.328125 31.984375 C73.26692703 36.23982078 77.70900603 40.73909735 81.9375 45.6875 C82.62839722 46.48921631 82.62839722 46.48921631 83.33325195 47.30712891 C86.13221089 50.65883432 88.33871917 53.95388397 90 58 C89.505 58.99 89.505 58.99 89 60 C87.515 59.01 87.515 59.01 86 58 C86 57.01 86 56.02 86 55 C85.34 55 84.68 55 84 55 C82.61558 53.03501678 81.28796166 51.02951535 80 49 C79.4225 48.2575 78.845 47.515 78.25 46.75 C77 45 77 45 77 43 C75.515 42.505 75.515 42.505 74 42 C73.7834375 41.0409375 73.7834375 41.0409375 73.5625 40.0625 C73.20368554 37.83377387 73.20368554 37.83377387 71.125 36.8125 C69.43247845 36.16535941 67.71903407 35.57301136 66 35 C65.731875 34.401875 65.46375 33.80375 65.1875 33.1875 C63.50609198 30.09016944 60.9040564 28.91544145 58 27 C57.505 25.515 57.505 25.515 57 24 C54.71845531 22.85117659 54.71845531 22.85117659 52 22 C50.24720195 21.38289063 48.49714159 20.7579465 46.75 20.125 C45.87859375 19.81820313 45.0071875 19.51140625 44.109375 19.1953125 C42 18 42 18 41.203125 15.8671875 C41.10257812 14.94292969 41.10257812 14.94292969 41 14 C40.41992188 13.89042969 39.83984375 13.78085938 39.2421875 13.66796875 C35.50831698 12.91010394 32.35291092 12.18005659 28.9375 10.4375 C25.20272214 8.60984275 22.12840246 8.35589676 18 8 C18 7.34 18 6.68 18 6 C17.00097656 5.87882813 16.00195312 5.75765625 14.97265625 5.6328125 C13.68230469 5.46523437 12.39195312 5.29765625 11.0625 5.125 C9.77472656 4.96257813 8.48695313 4.80015625 7.16015625 4.6328125 C6.11730469 4.42398437 5.07445312 4.21515625 4 4 C3.67 3.34 3.34 2.68 3 2 C2.01 1.34 1.02 0.68 0 0 Z " fill="#72C1E1" transform="translate(262,2)"/>
<path d="M0 0 C0.495 1.485 0.495 1.485 1 3 C-1.26994864 5.43832518 -3.54111319 7.87551454 -5.8125 10.3125 C-6.45509766 11.00279297 -7.09769531 11.69308594 -7.75976562 12.40429688 C-8.38173828 13.07138672 -9.00371094 13.73847656 -9.64453125 14.42578125 C-10.21534424 15.03848877 -10.78615723 15.65119629 -11.37426758 16.2824707 C-11.91075928 16.84925537 -12.44725098 17.41604004 -13 18 C-13.52295654 18.56871826 -14.04591309 19.13743652 -14.5847168 19.72338867 C-16 21 -16 21 -18 21 C-18 21.66 -18 22.32 -18 23 C-35.88434825 37.95563619 -61.07476982 51.78222286 -85 51 C-84.67 49.68 -84.34 48.36 -84 47 C-83.21496094 46.93941406 -82.42992187 46.87882812 -81.62109375 46.81640625 C-78.41248234 46.56050473 -75.206291 46.28338431 -72 46 C-70.2365625 45.8453125 -70.2365625 45.8453125 -68.4375 45.6875 C-63.4221419 44.68442838 -58.75831068 42.84997612 -54 41 C-54 40.34 -54 39.68 -54 39 C-52.83726562 38.92394531 -51.67453125 38.84789062 -50.4765625 38.76953125 C-45.69584663 38.16852095 -42.3682751 36.27650097 -38.375 33.6875 C-37.7459375 33.29626953 -37.116875 32.90503906 -36.46875 32.50195312 C-35.22910498 31.72653202 -33.99546607 30.94141178 -32.76855469 30.14599609 C-31.06077818 29.03938332 -29.33144289 27.96626175 -27.6015625 26.89453125 C-24.74357104 25.19859607 -24.74357104 25.19859607 -24 22 C-23.195625 21.71125 -22.39125 21.4225 -21.5625 21.125 C-20.716875 20.75375 -19.87125 20.3825 -19 20 C-18.71125 19.175 -18.4225 18.35 -18.125 17.5 C-17.75375 16.675 -17.3825 15.85 -17 15 C-14.67793475 14.29508733 -12.34406932 13.62787571 -10 13 C-8.50256112 11.01432266 -8.50256112 11.01432266 -8 9 C-7.34 9 -6.68 9 -6 9 C-5.62875 7.88625 -5.62875 7.88625 -5.25 6.75 C-3.90852699 3.79875938 -2.39094474 2.15185026 0 0 Z " fill="#6193BC" transform="translate(237,394)"/>
<path d="M0 0 C0.33 0 0.66 0 1 0 C1.25 7.625 1.25 7.625 -1 11 C-1.57756127 13.19418013 -2.0924743 15.40529747 -2.5625 17.625 C-3.89901823 23.89901823 -3.89901823 23.89901823 -5 25 C-7.29324272 34.36308428 -8.291423 43.61528102 -8.3125 53.25 C-8.31773682 54.14235352 -8.32297363 55.03470703 -8.32836914 55.95410156 C-8.27902394 60.53578131 -7.7948629 63.75697161 -6 68 C-5.62029541 70.76338564 -5.49447716 73.52718862 -5.375 76.3125 C-5.33632812 77.05306641 -5.29765625 77.79363281 -5.2578125 78.55664062 C-5.16418295 80.37071309 -5.08103149 82.18532116 -5 84 C-4.34 84 -3.68 84 -3 84 C-2.30238463 86.60183588 -1.61662226 89.20583602 -0.9375 91.8125 C-0.73833984 92.55048828 -0.53917969 93.28847656 -0.33398438 94.04882812 C1.11328125 99.66015625 1.11328125 99.66015625 0 103 C-2.91932832 98.71037472 -4.22923553 94.44611678 -5.5625 89.5 C-5.77068359 88.77296875 -5.97886719 88.0459375 -6.19335938 87.296875 C-9.38679212 75.68439229 -10.36554505 64.20105032 -10.3125 52.1875 C-10.31067719 51.52980621 -10.30885437 50.87211243 -10.30697632 50.19448853 C-10.25994992 40.09729369 -9.67808636 30.77396085 -7 21 C-6.80180664 20.26410645 -6.60361328 19.52821289 -6.39941406 18.77001953 C-2.52242886 4.5101493 -2.52242886 4.5101493 0 0 Z " fill="#7BC6E4" transform="translate(119,80)"/>
<path d="M0 0 C11.55658493 2.41758443 21.33255869 11.44144805 30 19 C30.33 19.66 30.66 20.32 31 21 C31.99 21.33 32.98 21.66 34 22 C35.76171875 23.93359375 35.76171875 23.93359375 37.6875 26.4375 C41.16036983 30.91820821 44.71599864 35.31310593 48.3359375 39.67578125 C50.07089251 42.09901653 51.22015417 44.12020785 52 47 C51.34 47.99 50.68 48.98 50 50 C49.01 49.505 49.01 49.505 48 49 C48 46.69 48 44.38 48 42 C46.68 42 45.36 42 44 42 C42.078125 40.171875 42.078125 40.171875 40.25 37.75 C39.63640625 36.96109375 39.0228125 36.1721875 38.390625 35.359375 C37 33 37 33 37 29 C35.68 29 34.36 29 33 29 C33 28.01 33 27.02 33 26 C32.34 26 31.68 26 31 26 C31 25.01 31 24.02 31 23 C30.01 23 29.02 23 28 23 C27.34 22.01 26.68 21.02 26 20 C24.34183216 19.31246699 22.67540664 18.64438717 21 18 C20.67 17.34 20.34 16.68 20 16 C17.1315587 13.89767656 17.1315587 13.89767656 14 13 C14 12.34 14 11.68 14 11 C13.34 10.67 12.68 10.34 12 10 C12 9.34 12 8.68 12 8 C9.06279492 6.47700477 6.0831351 5.19899698 3 4 C3 3.34 3 2.68 3 2 C2.01 1.67 1.02 1.34 0 1 C0 0.67 0 0.34 0 0 Z " fill="#658BA5" transform="translate(410,198)"/>
<path d="M0 0 C-0.66 0.99 -1.32 1.98 -2 3 C-3.32 3 -4.64 3 -6 3 C-6 4.32 -6 5.64 -6 7 C-7.65 7.33 -9.3 7.66 -11 8 C-11 7.67 -11 7.34 -11 7 C-18.12932373 6.52820652 -24.09325377 6.57364129 -30 11 C-30.99 12.485 -30.99 12.485 -32 14 C-34.8203125 14.29296875 -34.8203125 14.29296875 -38.125 14.1875 C-39.76855469 14.14689453 -39.76855469 14.14689453 -41.4453125 14.10546875 C-42.28835937 14.07066406 -43.13140625 14.03585938 -44 14 C-44.66 15.32 -45.32 16.64 -46 18 C-48.64 18 -51.28 18 -54 18 C-40.40081395 7.10744806 -17.34679684 -0.49487859 0 0 Z " fill="#689FCE" transform="translate(118,184)"/>
<path d="M0 0 C5.26285916 5.26285916 6.48753826 14.48560479 8.1875 21.5625 C8.35427246 22.24578369 8.52104492 22.92906738 8.69287109 23.63305664 C11.02882292 33.75351393 11.20682654 43.89916395 11.25 54.25 C11.270625 55.47074219 11.29125 56.69148438 11.3125 57.94921875 C11.34942442 66.67261244 10.077257 74.54668022 8 83 C7.65739833 84.66478617 7.32048954 86.33081597 7 88 C6.67 88 6.34 88 6 88 C5.90959314 82.8468087 6.19391063 78.10523266 7 73 C8.00151961 65.89241355 8.19193577 58.86013973 8.1875 51.6875 C8.18814453 50.69814453 8.18878906 49.70878906 8.18945312 48.68945312 C8.08917084 35.02371234 7.77761411 20.03480345 0.8125 7.9375 C-0.31183598 5.25639113 -0.13053949 2.87186886 0 0 Z " fill="#6FC1DE" transform="translate(362,80)"/>
<path d="M0 0 C0.66 0 1.32 0 2 0 C2 7.92 2 15.84 2 24 C1.34 24 0.68 24 0 24 C-0.33 25.32 -0.66 26.64 -1 28 C-1.5775 28.103125 -2.155 28.20625 -2.75 28.3125 C-5.32340717 29.09881886 -6.89680769 30.35191023 -9 32 C-7.61479255 27.31507074 -6.20913238 22.63826479 -4.72265625 17.984375 C-4.50053467 17.28570312 -4.27841309 16.58703125 -4.04956055 15.8671875 C-3.60780471 14.48068492 -3.16277654 13.09521968 -2.71411133 11.7109375 C-1.47947768 7.82613609 -0.56419672 4.03714096 0 0 Z " fill="#F7FCFC" transform="translate(479,340)"/>
<path d="M0 0 C0 2 0 2 -2.25 4.625 C-5 7 -5 7 -9 7 C-9.0928125 7.8971875 -9.0928125 7.8971875 -9.1875 8.8125 C-10.33271869 11.89578108 -12.17414947 12.39440311 -15 14 C-15.86625 14.86625 -16.7325 15.7325 -17.625 16.625 C-20 19 -20 19 -23 20 C-23.33 20.66 -23.66 21.32 -24 22 C-24.33 22.66 -24.66 23.32 -25 24 C-25.99 24.33 -26.98 24.66 -28 25 C-28.12375 25.639375 -28.2475 26.27875 -28.375 26.9375 C-28.58125 27.618125 -28.7875 28.29875 -29 29 C-31.375 30.125 -31.375 30.125 -34 31 C-34.99 31.66 -35.98 32.32 -37 33 C-35.37749997 29.09294533 -32.72205586 26.24045987 -29.875 23.1875 C-29.3814502 22.65560059 -28.88790039 22.12370117 -28.37939453 21.57568359 C-21.99407523 14.77172279 -15.16558801 8.62490773 -7 4 C-6.34 4 -5.68 4 -5 4 C-5 3.34 -5 2.68 -5 2 C-2 0 -2 0 0 0 Z " fill="#6BC1E7" transform="translate(173,19)"/>
<path d="M0 0 C0.33 0 0.66 0 1 0 C1.125 6.75 1.125 6.75 0 9 C-0.27533388 10.54352749 -0.50869456 12.09467993 -0.71875 13.6484375 C-0.91017578 15.03289062 -0.91017578 15.03289062 -1.10546875 16.4453125 C-1.23566406 17.41210938 -1.36585938 18.37890625 -1.5 19.375 C-1.75846121 21.27891231 -2.01880794 23.18256984 -2.28125 25.0859375 C-2.39533203 25.9320459 -2.50941406 26.7781543 -2.62695312 27.64990234 C-2.97012739 29.81181035 -3.4320766 31.88734932 -4 34 C-4.66 34 -5.32 34 -6 34 C-5.98952637 34.71655762 -5.97905273 35.43311523 -5.96826172 36.17138672 C-5.92678701 39.40588905 -5.90070108 42.64033553 -5.875 45.875 C-5.85824219 47.00292969 -5.84148438 48.13085938 -5.82421875 49.29296875 C-5.81777344 50.36933594 -5.81132813 51.44570313 -5.8046875 52.5546875 C-5.79421387 53.54968262 -5.78374023 54.54467773 -5.77294922 55.56982422 C-6 58 -6 58 -8 60 C-8 50.76 -8 41.52 -8 32 C-7.34 32 -6.68 32 -6 32 C-6.02827881 31.39994141 -6.05655762 30.79988281 -6.08569336 30.18164062 C-6.25988735 23.58141112 -5.2879873 17.8505538 -3.5625 11.5 C-3.33240234 10.60796875 -3.10230469 9.7159375 -2.86523438 8.796875 C-1.1860119 2.37202381 -1.1860119 2.37202381 0 0 Z " fill="#6CAAD8" transform="translate(8,270)"/>
<path d="M0 0 C0.33 0 0.66 0 1 0 C0.57004095 13.32873067 -4.54724763 25.82022665 -10.6875 37.5 C-11.06777344 38.22388916 -11.44804687 38.94777832 -11.83984375 39.69360352 C-13.64071459 42.98106469 -14.83304831 44.88869887 -18 47 C-18 46.34 -18 45.68 -18 45 C-18.99 44.67 -19.98 44.34 -21 44 C-20.67 43.01 -20.34 42.02 -20 41 C-19.34 41.33 -18.68 41.66 -18 42 C-17.34 40.35 -16.68 38.7 -16 37 C-15.34 37 -14.68 37 -14 37 C-10.6439964 30.4675076 -10.6439964 30.4675076 -8.5 23.5 C-7.68282979 19.41414896 -5.76066527 15.75881562 -4 12 C-3.34 12 -2.68 12 -2 12 C-2.04125 10.7625 -2.0825 9.525 -2.125 8.25 C-2.13658291 4.98362038 -1.8568702 2.7853053 0 0 Z " fill="#5F85A1" transform="translate(478,340)"/>
<path d="M0 0 C0 3.21534057 -0.26476072 4.35582586 -2 7 C-3.65948148 8.01187895 -5.32580562 9.0126546 -7 10 C-7.33 10.99 -7.66 11.98 -8 13 C-9.73472366 13.72007397 -11.47177088 14.43578297 -13.2265625 15.10546875 C-15.86470737 16.43616297 -17.20264961 18.70682881 -19 21 C-20.32 21 -21.64 21 -23 21 C-23.33 21.99 -23.66 22.98 -24 24 C-27.5859906 26.3004468 -30.7662059 28.2700355 -35 29 C-35.928125 29.2475 -35.928125 29.2475 -36.875 29.5 C-39.56431182 30.13277925 -42.27236149 30.56605751 -45 31 C-42.8320666 28.8320666 -40.64397415 27.79121586 -37.89746094 26.48901367 C-23.50376572 19.66127839 -11.36899517 11.13611072 0 0 Z " fill="#D9E9F1" transform="translate(445,407)"/>
<path d="M0 0 C1 2 1 2 0.875 4.5 C0.441875 5.7375 0.441875 5.7375 0 7 C-2.5 8.125 -2.5 8.125 -5 9 C-5.33 9.99 -5.66 10.98 -6 12 C-6.9753197 13.02408568 -7.98198643 14.01834406 -9 15 C-10.69722112 16.97586936 -12.34555724 18.98783988 -14 21 C-15.32 20.67 -16.64 20.34 -18 20 C-17.67 21.32 -17.34 22.64 -17 24 C-17.61488281 24.25394531 -18.22976562 24.50789063 -18.86328125 24.76953125 C-19.67152344 25.11371094 -20.47976562 25.45789063 -21.3125 25.8125 C-22.11300781 26.14894531 -22.91351563 26.48539062 -23.73828125 26.83203125 C-26.04032849 27.87575356 -26.04032849 27.87575356 -27.625 29.625 C-29 31 -29 31 -31.6875 31.1875 C-32.8321875 31.0946875 -32.8321875 31.0946875 -34 31 C-31.02196083 27.8667076 -27.86843394 25.29239128 -24.375 22.75 C-23.41335937 22.04359375 -22.45171875 21.3371875 -21.4609375 20.609375 C-19 19 -19 19 -17 19 C-17 18.34 -17 17.68 -17 17 C-15.56640625 15.625 -15.56640625 15.625 -13.5625 14 C-8.55276148 9.76099049 -4.29804256 4.94473878 0 0 Z " fill="#DBF1FA" transform="translate(236,398)"/>
<path d="M0 0 C0.66 0 1.32 0 2 0 C2.53067341 2.10170656 3.04922857 4.20647598 3.5625 6.3125 C3.85253906 7.48425781 4.14257812 8.65601562 4.44140625 9.86328125 C5 13 5 13 4 16 C3.8716443 18.16832671 3.7978997 20.34004187 3.75390625 22.51171875 C3.72256592 23.82043945 3.69122559 25.12916016 3.65893555 26.47753906 C3.64357758 27.16626099 3.6282196 27.85498291 3.61239624 28.5645752 C3.15210985 48.14828325 3.15210985 48.14828325 2.1875 56.75 C2.05730469 57.92046875 1.92710937 59.0909375 1.79296875 60.296875 C0.86000852 63.47721234 -0.17220381 64.37100585 -3 66 C-2.5431097 60.70007253 -1.72661476 55.7420909 -0.47265625 50.5703125 C1.14230329 43.1336255 1.38007783 36.08516347 1.25 28.5 C1.24226563 26.69595703 1.24226563 26.69595703 1.234375 24.85546875 C1.16286767 16.53380352 0.682032 8.29224021 0 0 Z " fill="#D2F8FE" transform="translate(371,106)"/>
<path d="M0 0 C0.66 0 1.32 0 2 0 C1.44226441 6.24663864 0.35930891 9.70850958 -2 16 C-12.89 15.67 -23.78 15.34 -35 15 C-34.67 14.34 -34.34 13.68 -34 13 C-33.19256348 12.97494385 -32.38512695 12.9498877 -31.55322266 12.92407227 C-27.91031083 12.80834513 -24.26767274 12.68551365 -20.625 12.5625 C-18.71847656 12.50352539 -18.71847656 12.50352539 -16.7734375 12.44335938 C-14.95585937 12.38051758 -14.95585937 12.38051758 -13.1015625 12.31640625 C-11.42054443 12.26141968 -11.42054443 12.26141968 -9.70556641 12.20532227 C-7.03287229 12.17403987 -7.03287229 12.17403987 -5 11 C-4.34444881 8.47266765 -4.34444881 8.47266765 -4 6 C-3.34 6 -2.68 6 -2 6 C-1.34 4.02 -0.68 2.04 0 0 Z " fill="#5EC6FB" transform="translate(366,168)"/>
<path d="M0 0 C0.495 0.99 0.495 0.99 1 2 C-0.45792969 2.185625 -0.45792969 2.185625 -1.9453125 2.375 C-16.38195683 4.45235564 -29.52357958 9.59362284 -43 15 C-43.33 14.01 -43.66 13.02 -44 12 C-43.195625 11.87625 -42.39125 11.7525 -41.5625 11.625 C-40.716875 11.41875 -39.87125 11.2125 -39 11 C-38.67 10.34 -38.34 9.68 -38 9 C-33.79183921 6.83215959 -29.64457826 6.47232999 -25 6 C-25 5.34 -25 4.68 -25 4 C-16.70973202 0.94569075 -8.80143837 -0.28391737 0 0 Z " fill="#DFFAFD" transform="translate(222,0)"/>
<path d="M0 0 C-1.0625 2 -1.0625 2 -3 4 C-6.6875 4.25 -6.6875 4.25 -10 4 C-10.33 5.65 -10.66 7.3 -11 9 C-17.93 9 -24.86 9 -32 9 C-32 8.34 -32 7.68 -32 7 C-30.25976562 6.63648438 -30.25976562 6.63648438 -28.484375 6.265625 C-20.18826243 4.49665331 -12.1548491 2.6134089 -4.1875 -0.36328125 C-2 -1 -2 -1 0 0 Z " fill="#E3F5FB" transform="translate(186,438)"/>
<path d="M0 0 C0.66 0 1.32 0 2 0 C3.6640625 1.8359375 3.6640625 1.8359375 5.625 4.375 C9.12175569 8.87356343 12.69764608 13.2909878 16.3359375 17.67578125 C18.07089251 20.09901653 19.22015417 22.12020785 20 25 C19.34 25.99 18.68 26.98 18 28 C17.34 27.67 16.68 27.34 16 27 C16 24.69 16 22.38 16 20 C14.68 20 13.36 20 12 20 C10.078125 18.171875 10.078125 18.171875 8.25 15.75 C7.63640625 14.96109375 7.0228125 14.1721875 6.390625 13.359375 C5 11 5 11 5 7 C3.68 7 2.36 7 1 7 C1 6.01 1 5.02 1 4 C0.34 3.67 -0.32 3.34 -1 3 C-0.34 3 0.32 3 1 3 C0.67 2.01 0.34 1.02 0 0 Z " fill="#648BA9" transform="translate(442,220)"/>
<path d="M0 0 C1.32 0.66 2.64 1.32 4 2 C1.28427086 5.56894672 -2.57052039 6.3640771 -6.6875 7.5625 C-7.37005859 7.77068359 -8.05261719 7.97886719 -8.75585938 8.19335938 C-16.25287913 10.45166844 -23.11864839 12.28147684 -31 12 C-30.67 10.68 -30.34 9.36 -30 8 C-28.82244141 7.90912109 -28.82244141 7.90912109 -27.62109375 7.81640625 C-24.41248234 7.56050473 -21.206291 7.28338431 -18 7 C-16.824375 6.896875 -15.64875 6.79375 -14.4375 6.6875 C-9.4221419 5.68442838 -4.75831068 3.84997612 0 2 C0 1.34 0 0.68 0 0 Z " fill="#639ACA" transform="translate(183,433)"/>
<path d="M0 0 C2.97 0.495 2.97 0.495 6 1 C6 1.66 6 2.32 6 3 C7.299375 2.938125 7.299375 2.938125 8.625 2.875 C12.17662196 3.00654155 14.6951524 3.73431369 18 5 C18.86625 5.33 19.7325 5.66 20.625 6 C23 7 23 7 24.8203125 8.0234375 C27.35933945 9.16099438 29.4831377 9.4065635 32.25 9.625 C33.14203125 9.69976562 34.0340625 9.77453125 34.953125 9.8515625 C35.96632813 9.92503906 35.96632813 9.92503906 37 10 C37 10.66 37 11.32 37 12 C38.98 12.33 40.96 12.66 43 13 C43 13.66 43 14.32 43 15 C41.35 15 39.7 15 38 15 C38 14.34 38 13.68 38 13 C36.783125 12.9175 35.56625 12.835 34.3125 12.75 C22.94416676 11.4670533 8.97279193 7.28379581 0 0 Z " fill="#6FA4CD" transform="translate(72,432)"/>
<path d="M0 0 C0.33 0 0.66 0 1 0 C1.33773437 1.26457031 1.67546875 2.52914062 2.0234375 3.83203125 C2.47367054 5.49226557 2.92420721 7.15241757 3.375 8.8125 C3.59671875 9.64587891 3.8184375 10.47925781 4.046875 11.33789062 C4.26601562 12.14033203 4.48515625 12.94277344 4.7109375 13.76953125 C4.90993652 14.50792236 5.10893555 15.24631348 5.31396484 16.00708008 C6.00073929 18.27591737 6.00073929 18.27591737 8 21 C8 21.99 8 22.98 8 24 C3.05 24.66 -1.9 25.32 -7 26 C-6.505 24.515 -6.505 24.515 -6 23 C-2.04 22.505 -2.04 22.505 2 22 C1.855625 21.13375 1.71125 20.2675 1.5625 19.375 C1.376875 18.26125 1.19125 17.1475 1 16 C0.7215625 14.63875 0.7215625 14.63875 0.4375 13.25 C-0.15821776 8.8246681 -0.07929162 4.45795118 0 0 Z " fill="#E8FAFD" transform="translate(111,160)"/>
<path d="M0 0 C0.33 0 0.66 0 1 0 C1.74304413 4.75548243 -0.26756947 7.56068738 -2.7109375 11.42578125 C-3.13632812 11.94527344 -3.56171875 12.46476563 -4 13 C-4.66 13 -5.32 13 -6 13 C-6 13.99 -6 14.98 -6 16 C-6.66 16 -7.32 16 -8 16 C-8 16.99 -8 17.98 -8 19 C-8.66 19 -9.32 19 -10 19 C-10.46036629 20.35347689 -10.91816537 21.707827 -11.375 23.0625 C-11.65085937 23.87847656 -11.92671875 24.69445312 -12.2109375 25.53515625 C-12.89763854 27.68024711 -13.46376292 29.81415225 -14 32 C-14.33 32.99 -14.66 33.98 -15 35 C-16.485 35.495 -16.485 35.495 -18 36 C-17.47872111 30.09217257 -15.02863382 25.44764942 -12.375 20.25 C-11.92713135 19.36344727 -11.4792627 18.47689453 -11.01782227 17.56347656 C-7.84206378 11.38343806 -4.55648528 5.29499818 0 0 Z " fill="#6A9FC3" transform="translate(27,234)"/>
<path d="M0 0 C0.99 0.33 1.98 0.66 3 1 C-8.631747 8.66818938 -21.07073332 15.76136785 -35 18 C-35.33 17.34 -35.66 16.68 -36 16 C-31.40756518 13.85034966 -27.0827062 12.43592985 -22.11328125 11.4296875 C-20.05750749 11.01169284 -18.03136902 10.52274508 -16 10 C-16 9.34 -16 8.68 -16 8 C-14.77023437 7.51080078 -14.77023437 7.51080078 -13.515625 7.01171875 C-12.43796875 6.57472656 -11.3603125 6.13773437 -10.25 5.6875 C-9.18265625 5.25824219 -8.1153125 4.82898438 -7.015625 4.38671875 C-4.01083164 3.14663794 -4.01083164 3.14663794 -1.796875 1.26953125 C-1.20390625 0.85058594 -0.6109375 0.43164062 0 0 Z " fill="#5E819E" transform="translate(421,424)"/>
<path d="M0 0 C3.54348386 1.44995948 5.20126334 3.23961128 7.4375 6.3125 C10.07931293 9.83867248 12.83872568 12.92191711 16 16 C17.70932834 17.96831748 19.35396952 19.97773398 21 22 C19.35 21.67 17.7 21.34 16 21 C16 20.01 16 19.02 16 18 C14.35 18.33 12.7 18.66 11 19 C11 18.01 11 17.02 11 16 C10.34 16 9.68 16 9 16 C8.566875 14.906875 8.13375 13.81375 7.6875 12.6875 C6.0521764 8.78951414 6.0521764 8.78951414 3 6 C-0.12549017 5.74951364 -0.12549017 5.74951364 -3 6 C-2.01 4.02 -1.02 2.04 0 0 Z " fill="#DBEDF6" transform="translate(240,392)"/>
<path d="M0 0 C0.33 0 0.66 0 1 0 C1.11069824 0.69037354 1.22139648 1.38074707 1.33544922 2.09204102 C1.84427712 5.24958025 2.35958334 8.40602986 2.875 11.5625 C3.13603516 13.19155273 3.13603516 13.19155273 3.40234375 14.85351562 C4.30634472 20.36122523 5.30530243 25.67926035 7 31 C5.68 30.34 4.36 29.68 3 29 C3 27.35 3 25.7 3 24 C2.34 24 1.68 24 1 24 C-0.67487072 18.89594732 -1.24706191 14.61846315 -1.1875 9.1875 C-1.18105469 7.88167969 -1.17460937 6.57585937 -1.16796875 5.23046875 C-1 2 -1 2 0 0 Z " fill="#E7F9FD" transform="translate(1,328)"/>
<path d="M0 0 C0.66 0 1.32 0 2 0 C2 12.54 2 25.08 2 38 C1.01 38.495 1.01 38.495 0 39 C-1.40357635 31.01521012 -0.8834293 23.05889141 -0.5625 15 C-0.50917895 13.5429901 -0.45643955 12.0859588 -0.40429688 10.62890625 C-0.27624188 7.0856654 -0.14029866 3.54277965 0 0 Z " fill="#4E8CBE" transform="translate(265,297)"/>
<path d="M0 0 C0.66 0.33 1.32 0.66 2 1 C-1.73067882 5.88847569 -5.05080475 6.85648588 -11.0625 7.73046875 C-15.38754353 8.1273145 -19.66238757 8.16936448 -24 8 C-24 7.34 -24 6.68 -24 6 C-23.02160156 5.81824219 -22.04320312 5.63648438 -21.03515625 5.44921875 C-12.24834803 3.79644286 -12.24834803 3.79644286 -3.6875 1.25 C-2.470625 0.8375 -1.25375 0.425 0 0 Z " fill="#E2F3F9" transform="translate(395,439)"/>
<path d="M0 0 C0.70382812 0.18175781 1.40765625 0.36351562 2.1328125 0.55078125 C10.05215579 2.56680206 18.00068029 4.33150284 26 6 C26 6.66 26 7.32 26 8 C23.77144426 8.0814222 21.54202345 8.13938079 19.3125 8.1875 C18.07113281 8.22230469 16.82976562 8.25710938 15.55078125 8.29296875 C11.76792948 7.98085227 10.0887808 7.08818984 7 5 C4.29046449 4.74803871 4.29046449 4.74803871 2 5 C1.34 3.35 0.68 1.7 0 0 Z " fill="#ECF7FC" transform="translate(302,439)"/>
<path d="M0 0 C0.66 0 1.32 0 2 0 C0.62026137 5.69509136 -0.76125675 11.35915994 -2.5625 16.9375 C-4.39203029 22.84014247 -5.18569511 28.88792329 -6 35 C-6.33 35 -6.66 35 -7 35 C-7.16478464 28.61834017 -6.54805742 22.56051757 -5.625 16.25 C-5.49867187 15.31800781 -5.37234375 14.38601562 -5.2421875 13.42578125 C-5.11328125 12.52730469 -4.984375 11.62882812 -4.8515625 10.703125 C-4.73635254 9.89520508 -4.62114258 9.08728516 -4.50244141 8.25488281 C-3.98140254 5.91653734 -3.15866385 4.08786565 -2 2 C-1.34 2 -0.68 2 0 2 C0 1.34 0 0.68 0 0 Z " fill="#DEFAFD" transform="translate(116,82)"/>
<path d="M0 0 C9.24 0 18.48 0 28 0 C28 0.33 28 0.66 28 1 C20.41 1.33 12.82 1.66 5 2 C4.67 3.32 4.34 4.64 4 6 C4.99 7.485 4.99 7.485 6 9 C6.165 9.86625 6.33 10.7325 6.5 11.625 C6.665 12.40875 6.83 13.1925 7 14 C7.66 14.33 8.32 14.66 9 15 C9.40729228 17.32156597 9.74438677 19.6568787 10 22 C9.67 21.01 9.34 20.02 9 19 C8.34 19 7.68 19 7 19 C6.67386719 18.18015625 6.34773438 17.3603125 6.01171875 16.515625 C5.35623047 14.89914063 5.35623047 14.89914063 4.6875 13.25 C4.25824219 12.18265625 3.82898438 11.1153125 3.38671875 10.015625 C2.14663794 7.01083164 2.14663794 7.01083164 0.26953125 4.796875 C-0.14941406 4.20390625 -0.56835938 3.6109375 -1 3 C-0.67 2.01 -0.34 1.02 0 0 Z " fill="#3094D8" transform="translate(119,183)"/>
<path d="M0 0 C1.65 0 3.3 0 5 0 C-0.54379185 5.72858491 -6.35947993 11.57298662 -13 16 C-13.98120464 12.94736336 -13.98120464 11.05263664 -13 8 C-11.576875 7.87625 -11.576875 7.87625 -10.125 7.75 C-6.89538209 7.34925077 -6.89538209 7.34925077 -5.625 4.9375 C-5.41875 4.298125 -5.2125 3.65875 -5 3 C-3.68 3 -2.36 3 -1 3 C-0.67 2.01 -0.34 1.02 0 0 Z " fill="#E8F8FB" transform="translate(49,208)"/>
<path d="M0 0 C10.23183856 -0.84872394 19.61985631 2.09307336 29 6 C29 6.33 29 6.66 29 7 C25.66536764 6.67883664 22.33262374 6.34132135 19 6 C18.22785156 5.9278125 17.45570313 5.855625 16.66015625 5.78125 C13.05049925 5.40482394 11.07705228 5.05136819 8 3 C5.9507906 2.54860541 5.9507906 2.54860541 3.8125 2.375 C2.554375 2.25125 1.29625 2.1275 0 2 C0 1.34 0 0.68 0 0 Z " fill="#6B8DA8" transform="translate(368,185)"/>
<path d="M0 0 C2.31 0 4.62 0 7 0 C7 0.66 7 1.32 7 2 C7.92619141 2.07347656 7.92619141 2.07347656 8.87109375 2.1484375 C14.73478159 2.66608422 20.27872775 3.61582123 26 5 C24 7 24 7 21.85546875 7.1171875 C14.20112637 6.42235701 7.26074931 4.48181415 0 2 C0 1.34 0 0.68 0 0 Z " fill="#688BA8" transform="translate(304,438)"/>
<path d="M0 0 C4.53100606 5.22808391 8.80143876 11.40431627 11 18 C11.66 18 12.32 18 13 18 C14.625 20.5 14.625 20.5 16 23 C13.75 22.875 13.75 22.875 11 22 C8.00173367 18.35345986 7 16.78447394 7 12 C5.68 12.33 4.36 12.66 3 13 C3 11.68 3 10.36 3 9 C2.34 9 1.68 9 1 9 C0.08941469 5.92677456 -0.08886184 3.19902639 0 0 Z " fill="#DBF1F9" transform="translate(16,378)"/>
<path d="M0 0 C4.97647536 1.76584609 9.43064863 4.39227818 14 7 C14.70511719 7.40089844 15.41023438 7.80179687 16.13671875 8.21484375 C17.75970662 9.13991391 19.38014927 10.06944745 21 11 C18.03315271 11.9889491 16.48851928 12.07889872 13.4375 11.8125 C12.65246094 11.75707031 11.86742188 11.70164062 11.05859375 11.64453125 C9 11 9 11 7.87890625 9.01953125 C7.58886719 8.35308594 7.29882812 7.68664062 7 7 C4.52869082 5.84478498 4.52869082 5.84478498 2 5 C1.34 4.34 0.68 3.68 0 3 C0 2.01 0 1.02 0 0 Z " fill="#E1F4FB" transform="translate(56,424)"/>
<path d="M0 0 C0 0.66 0 1.32 0 2 C-9.82157712 4.69611921 -19.88291651 5.97114405 -30 7 C-26.87249759 4.91499839 -24.2713673 4.02464775 -20.6875 2.9375 C-19.57761719 2.59589844 -18.46773437 2.25429687 -17.32421875 1.90234375 C-11.41444292 0.29816253 -6.07757598 -0.10478579 0 0 Z " fill="#73C1DE" transform="translate(224,2)"/>
<path d="M0 0 C0.66 0.99 1.32 1.98 2 3 C1.01 3 0.02 3 -1 3 C-1.66 5.64 -2.32 8.28 -3 11 C-3.66 11 -4.32 11 -5 11 C-5.99 12.485 -5.99 12.485 -7 14 C-7.99 14 -8.98 14 -10 14 C-10 14.66 -10 15.32 -10 16 C-11.32 15.67 -12.64 15.34 -14 15 C-13.34 14.01 -12.68 13.02 -12 12 C-11.34 12 -10.68 12 -10 12 C-9.75507812 11.42765625 -9.51015625 10.8553125 -9.2578125 10.265625 C-7.78889901 7.61975598 -6.04651756 5.85146861 -3.875 3.75 C-3.15054688 3.04359375 -2.42609375 2.3371875 -1.6796875 1.609375 C-1.12539063 1.07828125 -0.57109375 0.5471875 0 0 Z " fill="#6DA1CC" transform="translate(42,218)"/>
<path d="M0 0 C0.66 0.33 1.32 0.66 2 1 C1.72285156 2.18335938 1.44570312 3.36671875 1.16015625 4.5859375 C-0.71484817 12.72070438 -2.46103638 20.64606395 -3 29 C-3.66 29 -4.32 29 -5 29 C-5.02696365 27.20841511 -5.04637917 25.41671527 -5.0625 23.625 C-5.07410156 22.62726563 -5.08570313 21.62953125 -5.09765625 20.6015625 C-5 18 -5 18 -4 16 C-3.47764931 12.98880188 -3.03973288 9.96926528 -2.59765625 6.9453125 C-2.05536813 4.27285992 -1.35340895 2.34439877 0 0 Z " fill="#DDF6FC" transform="translate(5,273)"/>
<path d="M0 0 C0.55945313 0.18175781 1.11890625 0.36351562 1.6953125 0.55078125 C9.03489231 2.85177492 16.46615047 4.46934757 24 6 C24 6.66 24 7.32 24 8 C20.7 8 17.4 8 14 8 C14 7.67 14 7.34 14 7 C8.06 5.515 8.06 5.515 2 4 C2 3.34 2 2.68 2 2 C1.01 1.67 0.02 1.34 -1 1 C-0.67 0.67 -0.34 0.34 0 0 Z " fill="#E0F6FC" transform="translate(86,439)"/>
<path d="M0 0 C0.66 0.66 1.32 1.32 2 2 C1.61121812 5.01305957 0.73543126 6.39685311 -1 9 C-1.66 9 -2.32 9 -3 9 C-2.6596875 10.1446875 -2.6596875 10.1446875 -2.3125 11.3125 C-2.209375 12.199375 -2.10625 13.08625 -2 14 C-3.25 15.4375 -3.25 15.4375 -5 17 C-6.04622875 18.97620986 -7.05439935 20.9737129 -8 23 C-8.33 22.34 -8.66 21.68 -9 21 C-9.66 20.67 -10.32 20.34 -11 20 C-10.01 18.515 -10.01 18.515 -9 17 C-8.34 17 -7.68 17 -7 17 C-6.71125 15.9275 -6.4225 14.855 -6.125 13.75 C-5.27179891 10.90599636 -4.4363497 8.56491017 -3 6 C-2.34 6 -1.68 6 -1 6 C-0.67 4.02 -0.34 2.04 0 0 Z " fill="#4A89BB" transform="translate(254,368)"/>
<path d="M0 0 C0.66 0.33 1.32 0.66 2 1 C2 1.99 2 2.98 2 4 C1.21625 4.268125 0.4325 4.53625 -0.375 4.8125 C-3.28114923 5.84814432 -3.28114923 5.84814432 -5 9 C-6.62109375 10.1328125 -6.62109375 10.1328125 -8.4375 11.125 C-9.03433594 11.45757812 -9.63117187 11.79015625 -10.24609375 12.1328125 C-12 13 -12 13 -15 14 C-15.33 14.99 -15.66 15.98 -16 17 C-16.99 16.34 -17.98 15.68 -19 15 C-12.77352578 9.8494239 -6.52576241 4.7681072 0 0 Z " fill="#6DA2CA" transform="translate(62,202)"/>
<path d="M0 0 C0.33 0 0.66 0 1 0 C1.19491452 1.45736087 1.38069358 2.91594593 1.5625 4.375 C1.66691406 5.18710937 1.77132813 5.99921875 1.87890625 6.8359375 C2 9 2 9 1 11 C1.33 11.99 1.66 12.98 2 14 C-0.375 17.1875 -0.375 17.1875 -3 20 C-3.33 20 -3.66 20 -4 20 C-3.56615452 12.96871122 -2.25678003 6.670985 0 0 Z " fill="#4D8ABC" transform="translate(262,344)"/>
<path d="M0 0 C2.475 0.495 2.475 0.495 5 1 C5.2475 1.94875 5.495 2.8975 5.75 3.875 C6.68417641 7.01728764 6.68417641 7.01728764 8.8125 8.3125 C11.19251742 9.06050547 13.53974609 9.58995768 16 10 C16 10.99 16 11.98 16 13 C16.66 13 17.32 13 18 13 C18.33 14.98 18.66 16.96 19 19 C18.56429688 18.62488281 18.12859375 18.24976563 17.6796875 17.86328125 C16.78636719 17.09564453 16.78636719 17.09564453 15.875 16.3125 C15.23433594 15.75949219 14.59367187 15.20648438 13.93359375 14.63671875 C12.30340189 13.25681897 10.62525279 11.93386951 8.9375 10.625 C5.37416408 7.44074237 2.72971207 3.90097151 0 0 Z " fill="#658BA6" transform="translate(247,399)"/>
<path d="M0 0 C-1.175625 0.7425 -1.175625 0.7425 -2.375 1.5 C-7.15988024 4.674584 -11.55150055 8.37790163 -16 12 C-16.65234375 10.203125 -16.65234375 10.203125 -17 8 C-15.63510623 5.66629928 -13.8580962 3.99405446 -12 2 C-11.01 2.33 -10.02 2.66 -9 3 C-9 2.34 -9 1.68 -9 1 C-5.57367167 -0.61798838 -3.61944899 -1.34053666 0 0 Z " fill="#E1F9FD" transform="translate(166,24)"/>
<path d="M0 0 C2.97 0.495 2.97 0.495 6 1 C2.49415743 3.33722838 -1.07550049 4.41233172 -5.0625 5.625 C-5.79533203 5.85445312 -6.52816406 6.08390625 -7.28320312 6.3203125 C-12.72719029 8 -12.72719029 8 -15 8 C-15 6.68 -15 5.36 -15 4 C-10.15758367 2.66416101 -6.06562383 1.74671881 -1 2 C-0.67 1.34 -0.34 0.68 0 0 Z " fill="#DFF3FB" transform="translate(95,185)"/>
<path d="M0 0 C0 5.20718903 -3.85585087 9.03083654 -7 13 C-9.9375 15.625 -9.9375 15.625 -12 17 C-10.67732832 8.69849483 -10.67732832 8.69849483 -8 5.9375 C-6 5 -6 5 -4 5 C-2.61767557 3.37373596 -1.28062485 1.7074998 0 0 Z " fill="#5B84A5" transform="translate(459,387)"/>
<path d="M0 0 C4.29 0 8.58 0 13 0 C13 0.66 13 1.32 13 2 C14.32 2 15.64 2 17 2 C17 2.66 17 3.32 17 4 C19.475 4.495 19.475 4.495 22 5 C18.4482228 6.24769691 16.24015236 5.72044302 12.6875 4.625 C8.43235 3.37583398 4.40233083 2.48914787 0 2 C0 1.34 0 0.68 0 0 Z " fill="#CDF4FC" transform="translate(259,0)"/>
<path d="M0 0 C0.33 0.66 0.66 1.32 1 2 C0.01 2 -0.98 2 -2 2 C-2.33 2.99 -2.66 3.98 -3 5 C-5.0625 5.6875 -5.0625 5.6875 -7 6 C-7 6.66 -7 7.32 -7 8 C-8.98 8.33 -10.96 8.66 -13 9 C-13 9.99 -13 10.98 -13 12 C-15.35438733 13.42944945 -16.48032433 14.08661261 -19.25 13.625 C-19.8275 13.41875 -20.405 13.2125 -21 13 C-19 11 -19 11 -17 10.625 C-16.34 10.41875 -15.68 10.2125 -15 10 C-14.72285156 9.360625 -14.44570313 8.72125 -14.16015625 8.0625 C-13 6 -13 6 -10.87109375 5.0234375 C-10.06800781 4.80945313 -9.26492188 4.59546875 -8.4375 4.375 C-6.05256234 3.7597305 -6.05256234 3.7597305 -4 3 C-3.67 2.34 -3.34 1.68 -3 1 C-2.01 0.67 -1.02 0.34 0 0 Z " fill="#2E79AC" transform="translate(325,234)"/>
<path d="M0 0 C0.33 0 0.66 0 1 0 C1.02505615 0.70084717 1.0501123 1.40169434 1.07592773 2.1237793 C1.19226545 5.31185488 1.31482044 8.49966242 1.4375 11.6875 C1.47681641 12.79029297 1.51613281 13.89308594 1.55664062 15.02929688 C1.59853516 16.09599609 1.64042969 17.16269531 1.68359375 18.26171875 C1.72025146 19.24100342 1.75690918 20.22028809 1.79467773 21.22924805 C1.99234498 23.89669815 2.44307977 26.38761918 3 29 C3.11678799 31.67678073 3.0454506 34.31841457 3 37 C-0.03550686 32.44673971 -0.11960817 29.30400127 -0.09765625 23.92578125 C-0.0962413 23.2419487 -0.09482635 22.55811615 -0.09336853 21.8535614 C-0.08777876 19.67316278 -0.07522822 17.49286749 -0.0625 15.3125 C-0.05748367 13.83268378 -0.052921 12.35286594 -0.04882812 10.87304688 C-0.03781271 7.24866443 -0.02055512 3.6243423 0 0 Z " fill="#DAF6FE" transform="translate(108,123)"/>
<path d="M0 0 C1.65 0 3.3 0 5 0 C5.33 1.65 5.66 3.3 6 5 C6.66 5 7.32 5 8 5 C8.99 8.63 9.98 12.26 11 16 C8.15065815 13.15065815 6.36232731 11.28229543 4.375 8 C3.97023438 7.34 3.56546875 6.68 3.1484375 6 C2.01910201 4.03326609 0.99214175 2.0388968 0 0 Z " fill="#D3F2FB" transform="translate(344,48)"/>
<path d="M0 0 C1.57529969 2.95197464 2.66804755 5.85815922 3.625 9.0625 C3.88539063 9.91972656 4.14578125 10.77695312 4.4140625 11.66015625 C5 14 5 14 5 17 C4.34 17 3.68 17 3 17 C2.67 18.98 2.34 20.96 2 23 C1.67 23 1.34 23 1 23 C-0.24911667 15.34916042 -0.09053426 7.72559014 0 0 Z " fill="#638BAA" transform="translate(474,270)"/>
<path d="M0 0 C0.66 0.33 1.32 0.66 2 1 C1.34 3.31 0.68 5.62 0 8 C-0.66 8 -1.32 8 -2 8 C-2 8.99 -2 9.98 -2 11 C-3.6796875 12.7890625 -3.6796875 12.7890625 -5.875 14.625 C-6.59429687 15.23601562 -7.31359375 15.84703125 -8.0546875 16.4765625 C-10 18 -10 18 -12 19 C-10.556209 15.8250964 -8.7635182 13.32302232 -6.5625 10.625 C-3.84452605 7.19922033 -1.74382333 4.00053588 0 0 Z " fill="#4389B9" transform="translate(350,205)"/>
<path d="M0 0 C0 3.21534057 -0.26476072 4.35582586 -2 7 C-3.65948148 8.01187895 -5.32580562 9.0126546 -7 10 C-7.33 10.99 -7.66 11.98 -8 13 C-9.84765625 13.73046875 -9.84765625 13.73046875 -12.0625 14.1875 C-12.79597656 14.34605469 -13.52945312 14.50460937 -14.28515625 14.66796875 C-14.85105469 14.77753906 -15.41695313 14.88710938 -16 15 C-11.88953193 10.75251633 -7.51621775 6.82809989 -3.109375 2.890625 C-1.52811291 1.4733801 -1.52811291 1.4733801 0 0 Z " fill="#DCEFF5" transform="translate(445,407)"/>
<path d="M0 0 C0.99 0.33 1.98 0.66 3 1 C1.8125 3 1.8125 3 0 5 C-2.6875 5.25 -2.6875 5.25 -5 5 C-5.33 5.66 -5.66 6.32 -6 7 C-8.64860427 7.59355614 -11.29197322 7.74209269 -14 8 C-14 7.34 -14 6.68 -14 6 C-12.75336669 5.49166409 -11.50250613 4.99368855 -10.25 4.5 C-9.55390625 4.2215625 -8.8578125 3.943125 -8.140625 3.65625 C-6 3 -6 3 -2 3 C-2 2.34 -2 1.68 -2 1 C-1.34 0.67 -0.68 0.34 0 0 Z " fill="#4788B7" transform="translate(304,248)"/>
<path d="M0 0 C0.66 0 1.32 0 2 0 C1.47606294 5.86809507 0.23891142 10.54873741 -2 16 C-2.66 15.67 -3.32 15.34 -4 15 C-4 12.03 -4 9.06 -4 6 C-3.34 6 -2.68 6 -2 6 C-1.34 4.02 -0.68 2.04 0 0 Z " fill="#70C0E4" transform="translate(366,168)"/>
<path d="M0 0 C1.65 0 3.3 0 5 0 C5.28875 0.639375 5.5775 1.27875 5.875 1.9375 C6.82823451 4.15206079 6.82823451 4.15206079 9 5 C9 5.66 9 6.32 9 7 C9.99 7.33 10.98 7.66 12 8 C12 9.65 12 11.3 12 13 C10.85872377 11.85872377 9.71776264 10.71713121 8.578125 9.57421875 C7.42694314 8.42588635 6.26987213 7.28344889 5.109375 6.14453125 C4.47515625 5.51933594 3.8409375 4.89414062 3.1875 4.25 C2.58292969 3.65703125 1.97835938 3.0640625 1.35546875 2.453125 C0 1 0 1 0 0 Z " fill="#DDF9FE" transform="translate(332,35)"/>
<path d="M0 0 C2.64 0 5.28 0 8 0 C8 0.66 8 1.32 8 2 C8.66 2 9.32 2 10 2 C10 2.66 10 3.32 10 4 C13.3 4.66 16.6 5.32 20 6 C19.67 7.32 19.34 8.64 19 10 C18.29875 9.60167969 17.5975 9.20335937 16.875 8.79296875 C11.34766753 5.70637413 5.99543147 3.03618427 0 1 C0 0.67 0 0.34 0 0 Z " fill="#D2F3FD" transform="translate(290,9)"/>
<path d="M0 0 C0.33 0.99 0.66 1.98 1 3 C1.99 3 2.98 3 4 3 C4 6.96 4 10.92 4 15 C3.34 15 2.68 15 2 15 C1.47217261 12.68889138 0.95246631 10.37647528 0.4375 8.0625 C0.28603516 7.40314453 0.13457031 6.74378906 -0.02148438 6.06445312 C-0.39173308 4.3854183 -0.70072071 2.69312549 -1 1 C-0.67 0.67 -0.34 0.34 0 0 Z " fill="#E9F7FA" transform="translate(477,273)"/>
<path d="M0 0 C1.890625 0.24609375 1.890625 0.24609375 4 1 C5.046875 2.84765625 5.046875 2.84765625 5.75 5.0625 C5.99234375 5.79597656 6.2346875 6.52945312 6.484375 7.28515625 C6.65453125 7.85105469 6.8246875 8.41695313 7 9 C7.66 9 8.32 9 9 9 C9.1953125 15.0546875 9.1953125 15.0546875 9 17 C8.34 17.66 7.68 18.32 7 19 C6.82984375 18.38253906 6.6596875 17.76507813 6.484375 17.12890625 C4.77814576 11.1661796 2.66418883 5.59885369 0 0 Z " fill="#E4F4FA" transform="translate(468,255)"/>
<path d="M0 0 C2.475 0.495 2.475 0.495 5 1 C5 4.3 5 7.6 5 11 C5.66 11 6.32 11 7 11 C7 13.64 7 16.28 7 19 C5.11790145 16.17685218 4.07988565 13.79588032 2.9375 10.625 C2.59589844 9.68914062 2.25429688 8.75328125 1.90234375 7.7890625 C1.06436214 5.19893752 0.47232668 2.67814097 0 0 Z " fill="#D8F4FC" transform="translate(362,77)"/>
<path d="M0 0 C0.33 0.66 0.66 1.32 1 2 C0.14453125 4.1015625 0.14453125 4.1015625 -1.1875 6.625 C-1.64898437 7.511875 -2.11046875 8.39875 -2.5859375 9.3125 C-3.28589844 10.6428125 -3.28589844 10.6428125 -4 12 C-4.77477872 13.53968765 -5.54608087 15.08113412 -6.3125 16.625 C-6.869375 17.73875 -7.42625 18.8525 -8 20 C-9.26426661 16.20720018 -8.40145184 14.65934648 -7 11 C-6.67 10.34 -6.34 9.68 -6 9 C-5.34 9 -4.68 9 -4 9 C-3.8453125 7.329375 -3.8453125 7.329375 -3.6875 5.625 C-3.460625 4.42875 -3.23375 3.2325 -3 2 C-2.01 1.34 -1.02 0.68 0 0 Z " fill="#D1F4FC" transform="translate(127,62)"/>
<path d="M0 0 C0.33 0.66 0.66 1.32 1 2 C-0.47169811 5.73584906 -0.47169811 5.73584906 -3 7 C-3.1546875 7.9590625 -3.1546875 7.9590625 -3.3125 8.9375 C-3.539375 9.618125 -3.76625 10.29875 -4 11 C-6.375 12.125 -6.375 12.125 -9 13 C-9.99 13.66 -10.98 14.32 -12 15 C-10.38462556 11.10082032 -7.72075127 8.28706228 -4.875 5.25 C-4.40707031 4.74339844 -3.93914062 4.23679687 -3.45703125 3.71484375 C-2.30873459 2.47280859 -1.15491328 1.23588506 0 0 Z " fill="#7AC8DD" transform="translate(148,37)"/>
<path d="M0 0 C0.66 0 1.32 0 2 0 C2.69761537 2.60183588 3.38337774 5.20583602 4.0625 7.8125 C4.26166016 8.55048828 4.46082031 9.28847656 4.66601562 10.04882812 C6.11328125 15.66015625 6.11328125 15.66015625 5 19 C0.96347657 13.12869319 -0.3536539 7.07307798 0 0 Z " fill="#6DBEE1" transform="translate(114,164)"/>
<path d="M0 0 C2.26171875 0.6796875 2.26171875 0.6796875 4.6875 1.875 C5.49574219 2.26429688 6.30398438 2.65359375 7.13671875 3.0546875 C7.75160156 3.36664063 8.36648438 3.67859375 9 4 C9 5.65 9 7.3 9 9 C7.9790625 8.38125 7.9790625 8.38125 6.9375 7.75 C3.64808652 5.79034942 0.32839137 3.8926147 -3 2 C-2.01 1.34 -1.02 0.68 0 0 Z " fill="#E5F1F7" transform="translate(421,200)"/>
<path d="M0 0 C0.33 0 0.66 0 1 0 C1.83861979 5.36716665 -1.07929595 8.79627239 -4 13 C-5.32 12.67 -6.64 12.34 -8 12 C-6.69161864 9.997193 -5.37857806 7.99773901 -4.0625 6 C-3.50272461 5.14148438 -3.50272461 5.14148438 -2.93164062 4.265625 C-1.98055411 2.82614271 -0.99305724 1.41085511 0 0 Z " fill="#7DA7CA" transform="translate(27,234)"/>
<path d="M0 0 C0.33 0.99 0.66 1.98 1 3 C1.66 3 2.32 3 3 3 C3.56054936 4.24164697 4.09777907 5.49383884 4.625 6.75 C4.92664063 7.44609375 5.22828125 8.1421875 5.5390625 8.859375 C6.12565635 11.58355661 5.44810616 12.68719735 4 15 C3.73445313 14.39671875 3.46890625 13.7934375 3.1953125 13.171875 C2.84210938 12.37265625 2.48890625 11.5734375 2.125 10.75 C1.77695312 9.96109375 1.42890625 9.1721875 1.0703125 8.359375 C0.09586095 6.21131392 -0.92986429 4.10170798 -2 2 C-1.34 2 -0.68 2 0 2 C0 1.34 0 0.68 0 0 Z " fill="#E2FAFD" transform="translate(357,62)"/>
<path d="M0 0 C3.00617269 3.00617269 2.59585316 5.82381598 3 10 C1.35 9.67 -0.3 9.34 -2 9 C-2.25 3.375 -2.25 3.375 0 0 Z " fill="#2169A4" transform="translate(259,278)"/>
<path d="M0 0 C2.00422904 3.00634356 2.95100828 5.51850074 4.0625 8.9375 C4.40410156 9.97777344 4.74570313 11.01804688 5.09765625 12.08984375 C5.80945673 14.38547733 6.4532945 16.66100223 7 19 C5.68 19 4.36 19 3 19 C2.92652344 18.00419922 2.92652344 18.00419922 2.8515625 16.98828125 C2.4514964 12.26336264 1.92841732 8.37107926 0 4 C0 2.68 0 1.36 0 0 Z " fill="#C4F0FB" transform="translate(112,165)"/>
<path d="M0 0 C0.33 1.98 0.66 3.96 1 6 C1.99 6.33 2.98 6.66 4 7 C1 8 1 8 -2.1875 6.5625 C-3.115625 6.046875 -4.04375 5.53125 -5 5 C-5 3.68 -5 2.36 -5 1 C-3 0 -3 0 0 0 Z " fill="#658BAB" transform="translate(287,425)"/>
<path d="M0 0 C0 3.88091967 -1.65317733 6.39673296 -3.5 9.6875 C-3.83386719 10.29400391 -4.16773438 10.90050781 -4.51171875 11.52539062 C-5.335537 13.02003231 -6.16703451 14.51043671 -7 16 C-8.31223496 12.06329512 -7.24296256 9.87511856 -6 6 C-5.34 6 -4.68 6 -4 6 C-3.8453125 5.071875 -3.8453125 5.071875 -3.6875 4.125 C-3 2 -3 2 0 0 Z " fill="#E3F9FC" transform="translate(23,238)"/>
<path d="M0 0 C1.02018585 2.6686569 1.06982104 3.80064256 0.109375 6.54296875 C-0.33921875 7.41566406 -0.7878125 8.28835937 -1.25 9.1875 C-1.90742188 10.50814453 -1.90742188 10.50814453 -2.578125 11.85546875 C-4 14 -4 14 -7 15 C-7 15.99 -7 16.98 -7 18 C-7.66 18 -8.32 18 -9 18 C-7.55049545 14.2089881 -5.84827434 10.6125362 -4 7 C-3.34 7 -2.68 7 -2 7 C-1.34 4.69 -0.68 2.38 0 0 Z " fill="#4486B8" transform="translate(361,187)"/>
<path d="M0 0 C0.33 0.99 0.66 1.98 1 3 C0.07421875 4.71875 0.07421875 4.71875 -1.3125 6.5 C-1.98732422 7.38171875 -1.98732422 7.38171875 -2.67578125 8.28125 C-3.33126953 9.13203125 -3.33126953 9.13203125 -4 10 C-4.99 11.485 -4.99 11.485 -6 13 C-6.33 12.67 -6.66 12.34 -7 12 C-7.99 13.485 -7.99 13.485 -9 15 C-9.66 14.67 -10.32 14.34 -11 14 C-10.37351562 13.24074219 -9.74703125 12.48148437 -9.1015625 11.69921875 C-8.28429687 10.70535156 -7.46703125 9.71148437 -6.625 8.6875 C-5.81289063 7.70136719 -5.00078125 6.71523438 -4.1640625 5.69921875 C-1.94395043 3.01091621 -1.94395043 3.01091621 0 0 Z " fill="#D0E6F0" transform="translate(457,392)"/>
<path d="M0 0 C1.44555765 2.3160577 2.07011705 3.50661539 1.6796875 6.25390625 C1.41414063 7.01574219 1.14859375 7.77757812 0.875 8.5625 C0.62492187 9.32691406 0.37484375 10.09132813 0.1171875 10.87890625 C-1.19752231 13.37501613 -2.65630013 14.47805382 -5 16 C-3.41078475 10.63904723 -1.81027062 5.29156027 0 0 Z " fill="#DEF0F8" transform="translate(475,356)"/>
<path d="M0 0 C0.99 0.33 1.98 0.66 3 1 C2.67 2.98 2.34 4.96 2 7 C1.67 6.01 1.34 5.02 1 4 C-0.35544922 3.92652344 -0.35544922 3.92652344 -1.73828125 3.8515625 C-3.50751953 3.73941406 -3.50751953 3.73941406 -5.3125 3.625 C-6.48425781 3.55539062 -7.65601563 3.48578125 -8.86328125 3.4140625 C-12 3 -12 3 -15 1 C-14.00097656 1.01160156 -13.00195312 1.02320313 -11.97265625 1.03515625 C-10.68230469 1.04417969 -9.39195312 1.05320312 -8.0625 1.0625 C-6.13083984 1.07990234 -6.13083984 1.07990234 -4.16015625 1.09765625 C-1.13701597 1.36532549 -1.13701597 1.36532549 0 0 Z " fill="#2F8ED3" transform="translate(225,260)"/>
<path d="M0 0 C2 0 4 0 6 0 C5.5359375 1.1446875 5.5359375 1.1446875 5.0625 2.3125 C4.32106407 4.18789677 3.63771783 6.08684652 3 8 C2.01 8 1.02 8 0 8 C-1.125 2.25 -1.125 2.25 0 0 Z " fill="#216AA6" transform="translate(240,383)"/>
<path d="M0 0 C1.3948344 2.62042112 2.38202492 5.04976961 3.0625 7.9375 C3.22621094 8.62714844 3.38992188 9.31679688 3.55859375 10.02734375 C4.07715097 12.34478973 4.56235315 14.66588347 5 17 C3.0625 16.3125 3.0625 16.3125 1 15 C-0.73857695 10.36379481 -0.08552435 4.89389339 0 0 Z " fill="#D9F3FB" transform="translate(3,342)"/>
<path d="M0 0 C1.258125 -0.020625 2.51625 -0.04125 3.8125 -0.0625 C4.52019531 -0.07410156 5.22789062 -0.08570313 5.95703125 -0.09765625 C8 0 8 0 11 1 C11.33 1.66 11.66 2.32 12 3 C14.02463255 3.65213292 14.02463255 3.65213292 16 4 C16 4.33 16 4.66 16 5 C10.13190493 4.47606294 5.45126259 3.23891142 0 1 C0 0.67 0 0.34 0 0 Z " fill="#2F8DD7" transform="translate(192,255)"/>
<path d="M0 0 C3.6413205 -0.33102914 5.41472925 -0.42019439 8.4375 1.75 C8.953125 2.4925 9.46875 3.235 10 4 C9.59765625 6.140625 9.59765625 6.140625 9 8 C7.49712782 6.85793642 5.99776716 5.71125043 4.5 4.5625 C3.6646875 3.92441406 2.829375 3.28632813 1.96875 2.62890625 C1.3190625 2.09136719 0.669375 1.55382812 0 1 C0 0.67 0 0.34 0 0 Z " fill="#CEF5FD" transform="translate(322,27)"/>
<path d="M0 0 C3.89334477 1.59905232 4.81655633 2.67450827 6.5 6.4375 C5.08208592 5.98304036 3.66571954 5.52375056 2.25 5.0625 C1.46109375 4.80726563 0.6721875 4.55203125 -0.140625 4.2890625 C-2.36627958 3.48576333 -4.40931672 2.54038338 -6.5 1.4375 C-3.5 -0.5625 -3.5 -0.5625 0 0 Z " fill="#7094B0" transform="translate(296.5,432.5625)"/>
<path d="M0 0 C-7.11389522 6.51936219 -7.11389522 6.51936219 -12 8 C-10.7455037 4.2365111 -8.95278233 2.60943555 -6 0 C-3.3047908 -1.07808368 -2.60944584 -1.30472292 0 0 Z " fill="#60829E" transform="translate(436,416)"/>
<path d="M0 0 C0.66 0.33 1.32 0.66 2 1 C0.89966185 2.60679516 -0.20542664 4.21033793 -1.3125 5.8125 C-1.92738281 6.70582031 -2.54226562 7.59914063 -3.17578125 8.51953125 C-4.67715037 10.56100746 -6.14785401 12.28462787 -8 14 C-7.43697042 10.05879291 -6.3208055 7.2491277 -4 4 C-3.34 4 -2.68 4 -2 4 C-1.34 2.68 -0.68 1.36 0 0 Z " fill="#DCFAFE" transform="translate(136,48)"/>
<path d="M0 0 C0.763125 0.309375 1.52625 0.61875 2.3125 0.9375 C4.18789677 1.67893593 6.08684652 2.36228217 8 3 C8 3.66 8 4.32 8 5 C10.64 5.66 13.28 6.32 16 7 C16 7.33 16 7.66 16 8 C13.36 8 10.72 8 8 8 C7.67 6.68 7.34 5.36 7 4 C5.824375 3.7834375 5.824375 3.7834375 4.625 3.5625 C2 3 2 3 0 2 C0 1.34 0 0.68 0 0 Z " fill="#469EE2" transform="translate(176,248)"/>
<path d="M0 0 C4.46171506 1.57472296 9.79688514 3.59377029 12 8 C11.01 8.33 10.02 8.66 9 9 C8.67 8.34 8.34 7.68 8 7 C6.24063735 5.93489565 4.4283566 5.02623787 2.59375 4.09765625 C1 3 1 3 0 0 Z " fill="#2191D0" transform="translate(201,202)"/>
<path d="M0 0 C2 1 2 1 2 1 Z M-2 1 C0.625 1.375 0.625 1.375 3 2 C-0.40219265 4.74792483 -4.48464588 8 -9 8 C-9 7.01 -9 6.02 -9 5 C-7.824375 4.566875 -7.824375 4.566875 -6.625 4.125 C-3.90328368 3.15087746 -3.90328368 3.15087746 -2 1 Z " fill="#E1F5FC" transform="translate(73,193)"/>
<path d="M0 0 C4.02512852 3.33114085 5.66129814 7.06100148 7 12 C7 12.99 7 13.98 7 15 C6.34 15 5.68 15 5 15 C2.62886517 10.03715966 0.56825653 5.54050113 0 0 Z " fill="#83C9E4" transform="translate(355,65)"/>
<path d="M0 0 C1.1875 1.5625 1.1875 1.5625 2 4 C0.875 7.6875 0.875 7.6875 -1 11 C-3.1875 11.9375 -3.1875 11.9375 -5 12 C-3.68938409 7.76570244 -2.05643741 3.92592596 0 0 Z " fill="#E1F4FB" transform="translate(469,372)"/>
<path d="M0 0 C2.24956302 2.24956302 3.00510965 4.06323263 4.1875 7 C4.55230469 7.886875 4.91710937 8.77375 5.29296875 9.6875 C6 12 6 12 5 14 C1.77307451 11.84871634 1.58671036 11.63210677 0.8125 8.125 C0.65394531 7.44695312 0.49539063 6.76890625 0.33203125 6.0703125 C0 4 0 4 0 0 Z " fill="#CAEBF8" transform="translate(8,360)"/>
<path d="M0 0 C0.66 0 1.32 0 2 0 C1.7178711 2.27203802 1.42397144 4.54261684 1.125 6.8125 C0.88136719 8.70935547 0.88136719 8.70935547 0.6328125 10.64453125 C0 14 0 14 -2 17 C-3.44715727 13.12813552 -2.5441918 10.1767672 -1.5625 6.25 C-1.27503906 5.07953125 -0.98757813 3.9090625 -0.69140625 2.703125 C-0.46324219 1.81109375 -0.23507812 0.9190625 0 0 Z " fill="#D3EDF6" transform="translate(479,340)"/>
<path d="M0 0 C3.10221616 0.63438578 5.48225798 1.67311319 8.1875 3.3125 C9.22970703 3.92544922 9.22970703 3.92544922 10.29296875 4.55078125 C12.32506306 6.27596886 12.62925496 7.40478472 13 10 C12.67 9.34 12.34 8.68 12 8 C9.13073269 6.36041868 6.07584082 5.19616032 3 4 C3 3.34 3 2.68 3 2 C2.01 1.67 1.02 1.34 0 1 C0 0.67 0 0.34 0 0 Z " fill="#6686A2" transform="translate(410,198)"/>
<path d="M0 0 C1.29227216 4.18142349 0.54613006 6.90275533 -1 11 C-1.99 11.33 -2.98 11.66 -4 12 C-4.33 12.99 -4.66 13.98 -5 15 C-5.66 15 -6.32 15 -7 15 C-5.63408831 11.45756548 -4.09068516 8.07372071 -2.375 4.6875 C-1.70597656 3.36298828 -1.70597656 3.36298828 -1.0234375 2.01171875 C-0.68570313 1.34785156 -0.34796875 0.68398437 0 0 Z " fill="#72C1E6" transform="translate(127,64)"/>
<path d="M0 0 C0.33 1.32 0.66 2.64 1 4 C0.34 4 -0.32 4 -1 4 C-1.66 6.31 -2.32 8.62 -3 11 C-4.32 11.33 -5.64 11.66 -7 12 C-5.44298069 7.32894208 -2.91552627 3.91294315 0 0 Z " fill="#77C2DD" transform="translate(135,52)"/>
<path d="M0 0 C1.31611677 0.95336021 2.62778961 1.91285774 3.9375 2.875 C4.66839844 3.40867187 5.39929687 3.94234375 6.15234375 4.4921875 C8 6 8 6 9 8 C5.28400809 8.20086443 4.22791555 8.1519437 1 6 C0.3125 2.875 0.3125 2.875 0 0 Z " fill="#DFF4FB" transform="translate(47,416)"/>
<path d="M0 0 C0.66 0 1.32 0 2 0 C1.40984815 5.50808397 0.43336231 10.64878069 -1 16 C-1.33 16 -1.66 16 -2 16 C-2.20674944 10.21101581 -1.59162079 5.57067277 0 0 Z " fill="#76BFE1" transform="translate(370,152)"/>
<path d="M0 0 C0.99 0.33 1.98 0.66 3 1 C3.33 2.98 3.66 4.96 4 7 C2.68 7 1.36 7 0 7 C-0.38133299 5.0085944 -0.71325582 3.00720923 -1 1 C-0.67 0.67 -0.34 0.34 0 0 Z " fill="#4EC8FB" transform="translate(360,89)"/>
<path d="M0 0 C0 3 0 3 -2.3125 5.5625 C-5 8 -5 8 -8 10 C-8.99 9.67 -9.98 9.34 -11 9 C-9.73113036 7.87278564 -8.45982438 6.74831342 -7.1875 5.625 C-6.47980469 4.99851562 -5.77210938 4.37203125 -5.04296875 3.7265625 C-3 2 -3 2 0 0 Z " fill="#80C3DD" transform="translate(160,27)"/>
<path d="M0 0 C-3.94965569 2.6331038 -6.54875885 3.12274339 -11.1875 3.0625 C-12.53908203 3.04896484 -12.53908203 3.04896484 -13.91796875 3.03515625 C-14.60503906 3.02355469 -15.29210937 3.01195312 -16 3 C-10.42028161 0.16402743 -6.22522631 -0.10375377 0 0 Z " fill="#5E829E" transform="translate(384,442)"/>
<path d="M0 0 C0.33 0 0.66 0 1 0 C1 3.63 1 7.26 1 11 C-0.32 11 -1.64 11 -3 11 C-2.32829194 7.1936543 -1.27253436 3.64793184 0 0 Z " fill="#D1F9FE" transform="translate(367,173)"/>
<path d="M0 0 C3.96 0 7.92 0 12 0 C8.96474514 2.02350324 7.80573798 2.32124018 4.3125 2.625 C3.50425781 2.69976562 2.69601563 2.77453125 1.86328125 2.8515625 C1.24839844 2.90054687 0.63351563 2.94953125 0 3 C0 2.01 0 1.02 0 0 Z " fill="#6598BF" transform="translate(156,442)"/>
<path d="M0 0 C0 1.32 0 2.64 0 4 C-0.928125 3.95875 -1.85625 3.9175 -2.8125 3.875 C-6.15809719 3.72863661 -6.15809719 3.72863661 -9 6 C-11.1875 5.625 -11.1875 5.625 -13 5 C-11.21046815 4.16209211 -9.41830305 3.32980604 -7.625 2.5 C-6.62726563 2.0359375 -5.62953125 1.571875 -4.6015625 1.09375 C-2 0 -2 0 0 0 Z " fill="#CFE1EC" transform="translate(413,432)"/>
<path d="M0 0 C3.63 1.65 7.26 3.3 11 5 C9.68 5.99 8.36 6.98 7 8 C5.8274869 7.04882866 4.66212985 6.08882991 3.5 5.125 C2.8503125 4.59132813 2.200625 4.05765625 1.53125 3.5078125 C1.0259375 3.01023437 0.520625 2.51265625 0 2 C0 1.34 0 0.68 0 0 Z " fill="#E2F2F9" transform="translate(283,430)"/>
<path d="M0 0 C0.66 0 1.32 0 2 0 C2 0.99 2 1.98 2 3 C2.66 3 3.32 3 4 3 C4 5.64 4 8.28 4 11 C3.34 11 2.68 11 2 11 C1.34 7.37 0.68 3.74 0 0 Z " fill="#4C88BB" transform="translate(259,272)"/>
<path d="M0 0 C3.04012404 2.73611164 4.97159885 4.98923553 6 9 C5.01 10.485 5.01 10.485 4 12 C3.34 11.67 2.68 11.34 2 11 C1.71080072 9.00773831 1.42735449 7.01277818 1.24609375 5.0078125 C1.0424937 2.79670732 1.0424937 2.79670732 0 0 Z " fill="#7698B3" transform="translate(456,236)"/>
<path d="M0 0 C0.66 0 1.32 0 2 0 C3.2890625 1.53125 3.2890625 1.53125 4.625 3.5 C5.07101562 4.1496875 5.51703125 4.799375 5.9765625 5.46875 C6.31429688 5.9740625 6.65203125 6.479375 7 7 C6.34 7.66 5.68 8.32 5 9 C5 8.34 5 7.68 5 7 C3.68 7 2.36 7 1 7 C1 6.01 1 5.02 1 4 C0.34 3.67 -0.32 3.34 -1 3 C-0.34 3 0.32 3 1 3 C0.67 2.01 0.34 1.02 0 0 Z " fill="#6B94B6" transform="translate(442,220)"/>
<path d="M0 0 C0 1.32 0 2.64 0 4 C-3.63 4.66 -7.26 5.32 -11 6 C-7.92832129 2.92832129 -4.55956968 0 0 0 Z " fill="#7CC7E6" transform="translate(184,13)"/>
<path d="M0 0 C0.33 0.99 0.66 1.98 1 3 C-1.64 5.31 -4.28 7.62 -7 10 C-7.66 9.67 -8.32 9.34 -9 9 C-8.38125 8.7525 -7.7625 8.505 -7.125 8.25 C-4.5927804 6.76045906 -4.19281342 5.62418952 -3 3 C-1.375 1.25 -1.375 1.25 0 0 Z " fill="#5B839F" transform="translate(445,404)"/>
<path d="M0 0 C0.66 0 1.32 0 2 0 C2.50336767 1.62395997 3.00258976 3.24920541 3.5 4.875 C3.7784375 5.77992188 4.056875 6.68484375 4.34375 7.6171875 C5 10 5 10 5 12 C4.34 12 3.68 12 3 12 C2.49166409 10.75336669 1.99368855 9.50250613 1.5 8.25 C1.2215625 7.55390625 0.943125 6.8578125 0.65625 6.140625 C0 4 0 4 0 0 Z " fill="#72A3CB" transform="translate(5,348)"/>
<path d="M0 0 C1.32 0 2.64 0 4 0 C2.5140084 4.59306496 0.14985318 7.43569245 -3 11 C-3.33 10.34 -3.66 9.68 -4 9 C-3.525625 8.443125 -3.05125 7.88625 -2.5625 7.3125 C-0.87604004 4.81653926 -0.41046893 2.9553763 0 0 Z " fill="#5E9ED1" transform="translate(28,234)"/>
<path d="M0 0 C0.99 0.66 1.98 1.32 3 2 C3.1875 4.625 3.1875 4.625 3 7 C3.99 7.33 4.98 7.66 6 8 C5.01 8.66 4.02 9.32 3 10 C-0.875 4.25 -0.875 4.25 -2 2 C-1.34 2 -0.68 2 0 2 C0 1.34 0 0.68 0 0 Z " fill="#E8F5FC" transform="translate(457,232)"/>
<path d="M0 0 C-0.33 0.99 -0.66 1.98 -1 3 C-8.625 4.25 -8.625 4.25 -12 2 C-10.7625 1.67 -9.525 1.34 -8.25 1 C-7.55390625 0.814375 -6.8578125 0.62875 -6.140625 0.4375 C-4 0 -4 0 0 0 Z " fill="#D6EEF9" transform="translate(172,442)"/>
<path d="M0 0 C0 0.99 0 1.98 0 3 C1.32 3 2.64 3 4 3 C4 3.99 4 4.98 4 6 C0.00499382 4.6302836 -2.80009492 2.74277578 -6 0 C-2.25 -1.125 -2.25 -1.125 0 0 Z " fill="#D1F4FB" transform="translate(316,19)"/>
<path d="M0 0 C0.66 0 1.32 0 2 0 C1.34 2.31 0.68 4.62 0 7 C-1.32 7 -2.64 7 -4 7 C-2.92598892 4.08482708 -2.22189824 2.22189824 0 0 Z " fill="#D5E6EF" transform="translate(462,385)"/>
<path d="M0 0 C0.66 0.66 1.32 1.32 2 2 C-0.76250036 3.38125018 -2.94731099 3.19079306 -6 3 C-6.66 2.34 -7.32 1.68 -8 1 C-5.23749964 -0.38125018 -3.05268901 -0.19079306 0 0 Z " fill="#5F84A2" transform="translate(328,442)"/>
<path d="M0 0 C0.66 0 1.32 0 2 0 C2 0.99 2 1.98 2 3 C3.43750191 4.68798827 3.43750191 4.68798827 5 6 C1 6 1 6 -2 4 C-2 3.34 -2 2.68 -2 2 C-1.34 2 -0.68 2 0 2 C0 1.34 0 0.68 0 0 Z " fill="#618DAB" transform="translate(271,417)"/>
<path d="M0 0 C2.64 1.98 5.28 3.96 8 6 C6.68 6.99 5.36 7.98 4 9 C3 6 3 6 3 4 C2.34 4 1.68 4 1 4 C0.67 2.68 0.34 1.36 0 0 Z " fill="#E1EFF6" transform="translate(261,414)"/>
<path d="M0 0 C0.66 0.33 1.32 0.66 2 1 C-3.30311615 6.74504249 -3.30311615 6.74504249 -7 7 C-7.66 6.67 -8.32 6.34 -9 6 C-7.35 5.34 -5.7 4.68 -4 4 C-4 3.34 -4 2.68 -4 2 C-2.125 0.9375 -2.125 0.9375 0 0 Z " fill="#2388BE" transform="translate(284,199)"/>
<path d="M0 0 C1.32 0.66 2.64 1.32 4 2 C-0.455 4.97 -0.455 4.97 -5 8 C-4.67 6.68 -4.34 5.36 -4 4 C-3.34 4 -2.68 4 -2 4 C-1.34 2.68 -0.68 1.36 0 0 Z " fill="#DEF5FC" transform="translate(60,200)"/>
<path d="M0 0 C0.99 0 1.98 0 3 0 C3 0.66 3 1.32 3 2 C3.969375 2.12375 4.93875 2.2475 5.9375 2.375 C7.4534375 2.684375 7.4534375 2.684375 9 3 C9.33 3.66 9.66 4.32 10 5 C6.05272412 5.17942163 3.4019487 5.09350689 0 3 C0 2.01 0 1.02 0 0 Z " fill="#68C6ED" transform="translate(256,0)"/>
<path d="M0 0 C2.91517292 1.07401108 4.77810176 1.77810176 7 4 C4.39417629 4.93065133 3.35801776 5.14917407 0.75 4.0625 C0.1725 3.711875 -0.405 3.36125 -1 3 C-0.67 2.01 -0.34 1.02 0 0 Z " fill="#DCEFF7" transform="translate(273,424)"/>
<path d="M0 0 C2.475 0.495 2.475 0.495 5 1 C5.28875 1.969375 5.5775 2.93875 5.875 3.9375 C6.64214682 7.10664203 6.64214682 7.10664203 9 8 C8.01 8 7.02 8 6 8 C4.39453125 6.25 4.39453125 6.25 2.8125 4 C2.28269531 3.2575 1.75289062 2.515 1.20703125 1.75 C0.80871094 1.1725 0.41039062 0.595 0 0 Z " fill="#7191AA" transform="translate(247,399)"/>
<path d="M0 0 C0.33 0.66 0.66 1.32 1 2 C0.01 2 -0.98 2 -2 2 C-2.33 2.99 -2.66 3.98 -3 5 C-5.0625 5.6875 -5.0625 5.6875 -7 6 C-7 6.66 -7 7.32 -7 8 C-7.66 8 -8.32 8 -9 8 C-8.67 6.68 -8.34 5.36 -8 4 C-7.360625 3.87625 -6.72125 3.7525 -6.0625 3.625 C-5.0415625 3.315625 -5.0415625 3.315625 -4 3 C-3.67 2.34 -3.34 1.68 -3 1 C-2.01 0.67 -1.02 0.34 0 0 Z " fill="#347DB5" transform="translate(325,234)"/>
<path d="M0 0 C1.65 0 3.3 0 5 0 C0.25 4.875 0.25 4.875 -2 6 C-2.33 5.01 -2.66 4.02 -3 3 C-2.34 3 -1.68 3 -1 3 C-0.67 2.01 -0.34 1.02 0 0 Z " fill="#DBF2FA" transform="translate(49,208)"/>
<path d="M0 0 C0 0.66 0 1.32 0 2 C-1.43344 2.53190541 -2.87195367 3.05015258 -4.3125 3.5625 C-5.51326172 3.99755859 -5.51326172 3.99755859 -6.73828125 4.44140625 C-9 5 -9 5 -12 4 C-10.75539217 3.32332002 -9.50403104 2.65905281 -8.25 2 C-7.55390625 1.62875 -6.8578125 1.2575 -6.140625 0.875 C-4 0 -4 0 0 0 Z " fill="#5ECAFB" transform="translate(304,189)"/>
<path d="M0 0 C1.98 1.65 3.96 3.3 6 5 C5.67 5.66 5.34 6.32 5 7 C3.68 6.67 2.36 6.34 1 6 C0.67 4.02 0.34 2.04 0 0 Z " fill="#DDF1FC" transform="translate(38,408)"/>
<path d="M0 0 C2.625 0.375 2.625 0.375 5 1 C3.68 2.32 2.36 3.64 1 5 C0.01 4.01 -0.98 3.02 -2 2 C-1.34 1.34 -0.68 0.68 0 0 Z " fill="#5F98C8" transform="translate(221,408)"/>
<path d="M0 0 C1.32 0.33 2.64 0.66 4 1 C4.33 2.32 4.66 3.64 5 5 C3.35 5.33 1.7 5.66 0 6 C0 4.02 0 2.04 0 0 Z " fill="#E5F4F8" transform="translate(11,373)"/>
<path d="M0 0 C2.97 0.99 5.94 1.98 9 3 C5 5 5 5 2.75 4.625 C2.1725 4.41875 1.595 4.2125 1 4 C0.67 2.68 0.34 1.36 0 0 Z " fill="#6D91B0" transform="translate(399,192)"/>
<path d="M0 0 C0.99 0.33 1.98 0.66 3 1 C2.67 1.99 2.34 2.98 2 4 C-1.5625 5.1875 -1.5625 5.1875 -5 6 C-5 5.34 -5 4.68 -5 4 C-4.360625 3.71125 -3.72125 3.4225 -3.0625 3.125 C-0.84793921 2.17176549 -0.84793921 2.17176549 0 0 Z M-7 6 C-5 7 -5 7 -5 7 Z " fill="#4C8CBE" transform="translate(323,236)"/>
<path d="M0 0 C0 1.32 0 2.64 0 4 C-1.65 4.33 -3.3 4.66 -5 5 C-5 3.68 -5 2.36 -5 1 C-2 0 -2 0 0 0 Z " fill="#EBFBFB" transform="translate(85,188)"/>
<path d="M0 0 C0.66 0 1.32 0 2 0 C4 3 4 3 4 6 C2.68 6 1.36 6 0 6 C0 4.02 0 2.04 0 0 Z " fill="#4ACCF7" transform="translate(355,74)"/>
<path d="M0 0 C0.66 0.66 1.32 1.32 2 2 C1.625 4.625 1.625 4.625 1 7 C0.01 7.33 -0.98 7.66 -2 8 C-1.125 2.25 -1.125 2.25 0 0 Z " fill="#74A9D1" transform="translate(11,262)"/>
<path d="M0 0 C0 0.66 0 1.32 0 2 C-2.64 2.33 -5.28 2.66 -8 3 C-8 2.34 -8 1.68 -8 1 C-5.07175348 0.02391783 -3.04386724 -0.08226668 0 0 Z " fill="#3F8BBE" transform="translate(298,253)"/>
<path d="M0 0 C0.66 1.32 1.32 2.64 2 4 C0.68 4.99 -0.64 5.98 -2 7 C-2.66 6.34 -3.32 5.68 -4 5 C-2.68 3.35 -1.36 1.7 0 0 Z " fill="#2184BB" transform="translate(249,228)"/>
<path d="M0 0 C0.99 0 1.98 0 3 0 C2.67 3.3 2.34 6.6 2 10 C1.67 10 1.34 10 1 10 C0.67 6.7 0.34 3.4 0 0 Z " fill="#C8F5FC" transform="translate(369,96)"/>
<path d="M0 0 C1 2 1 2 0.375 4.0625 C-1 6 -1 6 -3.625 6.75 C-4.800625 6.87375 -4.800625 6.87375 -6 7 C-4.02 4.69 -2.04 2.38 0 0 Z " fill="#8BC8E0" transform="translate(148,37)"/>
<path d="M0 0 C2.64 0.33 5.28 0.66 8 1 C8 1.66 8 2.32 8 3 C5.69 3 3.38 3 1 3 C0.67 2.01 0.34 1.02 0 0 Z " fill="#D6EEF8" transform="translate(320,444)"/>
<path d="M0 0 C1.670625 0.061875 1.670625 0.061875 3.375 0.125 C3.705 1.115 4.035 2.105 4.375 3.125 C1.075 2.795 -2.225 2.465 -5.625 2.125 C-3.625 0.125 -3.625 0.125 0 0 Z " fill="#5E89AC" transform="translate(381.625,439.875)"/>
<path d="M0 0 C0.66 0.33 1.32 0.66 2 1 C1.01 2.32 0.02 3.64 -1 5 C-3.475 4.01 -3.475 4.01 -6 3 C-3 1 -3 1 0 0 Z " fill="#DAEAF4" transform="translate(395,439)"/>
<path d="M0 0 C-5.75 4 -5.75 4 -8 4 C-8 3.34 -8 2.68 -8 2 C-3.61016949 -1.20338983 -3.61016949 -1.20338983 0 0 Z " fill="#6C9ABF" transform="translate(206,426)"/>
<path d="M0 0 C1.485 0.99 1.485 0.99 3 2 C3 2.66 3 3.32 3 4 C3.99 4.33 4.98 4.66 6 5 C5.67 5.99 5.34 6.98 5 8 C2.5 5.6875 2.5 5.6875 0 3 C0 2.01 0 1.02 0 0 Z " fill="#6D9ABE" transform="translate(38,405)"/>
<path d="M0 0 C1.98 1.65 3.96 3.3 6 5 C4.125 5.625 4.125 5.625 2 6 C1.34 5.34 0.68 4.68 0 4 C0 2.68 0 1.36 0 0 Z " fill="#DAF3FC" transform="translate(32,402)"/>
<path d="M0 0 C0 4.0333534 -1.60879918 5.83517538 -4 9 C-4.66 9 -5.32 9 -6 9 C-4.47291037 5.56404834 -2.40072955 2.88087546 0 0 Z " fill="#557691" transform="translate(459,387)"/>
<path d="M0 0 C1.98 0.99 1.98 0.99 4 2 C4 2.99 4 3.98 4 5 C2.68 5 1.36 5 0 5 C0 3.35 0 1.7 0 0 Z " fill="#4B9AE0" transform="translate(236,386)"/>
<path d="M0 0 C0.33 0 0.66 0 1 0 C1.125 6.75 1.125 6.75 0 9 C-0.66 9 -1.32 9 -2 9 C-1.34 6.03 -0.68 3.06 0 0 Z " fill="#78A3CA" transform="translate(8,270)"/>
<path d="M0 0 C2.31 0 4.62 0 7 0 C4.01353231 1.99097846 1.40312738 2.94124926 -2 4 C-1.34 2.68 -0.68 1.36 0 0 Z " fill="#D0F7FB" transform="translate(190,7)"/>
</svg>
